<?xml version="1.0" standalone="no"?>
<!-- <!DOCTYPE svg PUBLIC "-//W3C//DTD SVG 20010904//EN""http://www.w3.org/TR/2001/REC-SVG-20010904/DTD/svg10.dtd"> -->
<svg version="1.0" xmlns="http://www.w3.org/2000/svg" width="655.000000pt" height="580.000000pt" viewBox="0 0 655.000000 580.000000" preserveAspectRatio="xMidYMid meet">
<metadata>
Created by potrace 1.13, written by Peter Selinger 2001-2015
</metadata>
<g transform="translate(0.000000,580.000000) scale(0.100000,-0.100000)">
<path d="M2773 5750 c-107 -11 -222 -42 -364 -100 -516 -208 -1112 -755 -1601
-1470 -250 -366 -428 -696 -507 -943 -17 -54 -42 -120 -55 -146 -31 -59 -90
-230 -116 -330 -61 -240 -92 -630 -72 -922 13 -195 28 -276 78 -429 200 -605
778 -1092 1514 -1274 298 -74 534 -91 1095 -82 396 6 503 13 746 46 770 106
1456 389 2004 826 130 105 353 325 449 444 340 426 525 910 528 1385 1 119 -2
149 -20 197 -60 165 -217 309 -432 398 -92 38 -256 78 -356 87 -41 3 -74 7
-74 8 0 1 20 45 44 96 99 210 146 397 146 576 0 138 -19 227 -70 330 -96 194
-231 266 -500 267 -406 1 -879 -185 -1415 -558 -88 -61 -176 -125 -196 -143
-45 -41 -124 -76 -153 -69 -12 3 -35 19 -51 36 -37 39 -40 95 -8 157 26 50 94
315 120 468 14 86 18 161 17 345 0 222 -2 241 -26 332 -15 54 -44 130 -65 170
-114 219 -356 328 -660 298z m882 -2301 c580 -60 1058 -236 1402 -515 406
-330 556 -776 412 -1225 -104 -328 -414 -675 -819 -919 -508 -306 -1165 -475
-1840 -473 -310 0 -548 30 -835 103 -675 172 -1158 543 -1309 1005 -136 421
16 884 415 1259 450 424 1150 704 1914 766 72 5 150 12 175 14 70 6 374 -3
485 -15z" style="fill:rgb(255,0,0);stroke-width:1;stroke:rgb(0,0,0)"/>
<path d="M2645 2776 c-456 -77 -821 -325 -1000 -681 -76 -151 -98 -238 -98 -395 0 -108 3 -137 27 -215 100 -326 366 -545 771 -631 56 -12 127 -17 240 -17 177 0 283 17 464 75 337 107 628 347 766 631 71 148 90 228 89 387 -1 117 -4 146 -27 218 -97 305 -335 514 -686 604 -101 25 -139 30 -291 33 -119 3 -201 0 -255 -9z m313 -773 c45 -49 20 -125 -56 -174 -62 -39 -113 -40 -153 0 -16 16 -29 39 -29 51 0 83 106 169 190 153 14 -3 35 -16 48 -30z m-462 -24 c100 -38 172 -120 200 -230 14 -55 14 -68 0 -136 -28 -137 -115 -245 -252 -310 -98 -47 -176 -60 -260 -44 -83 15 -148 48 -196 98 -101 106 -118 242 -50 387 52 110 150 194 276 238 75 26 209 24 282 -3z"/>
</g>
</svg>
