<?xml version="1.0" standalone="no"?>
<!DOCTYPE svg PUBLIC "-//W3C//DTD SVG 20010904//EN"
 "http://www.w3.org/TR/2001/REC-SVG-20010904/DTD/svg10.dtd">
<svg version="1.0" xmlns="http://www.w3.org/2000/svg"
 width="1047.000000pt" height="1048.000000pt" viewBox="0 0 1047.000000 1048.000000"
 preserveAspectRatio="xMidYMid meet">
<metadata>
Created by potrace 1.13, written by Peter Selinger 2001-2015
</metadata>
<g transform="translate(0.000000,1048.000000) scale(0.100000,-0.100000)"
fill="#000000" stroke="none">
<path d="M0 5240 l0 -5240 5235 0 5235 0 0 5240 0 5240 -5235 0 -5235 0 0
-5240z m2665 3360 c-3 -5 -10 -10 -16 -10 -5 0 -9 5 -9 10 0 6 7 10 16 10 8 0
12 -4 9 -10z m38 -64 c40 -30 99 -77 132 -105 32 -28 67 -51 78 -51 10 0 16
-4 13 -9 -6 -9 11 -26 43 -46 78 -47 119 -74 145 -96 17 -14 56 -43 86 -64 30
-22 75 -53 99 -69 24 -17 68 -47 97 -67 30 -19 52 -38 49 -41 -3 -3 15 -16 39
-29 25 -13 42 -27 40 -31 -3 -4 16 -13 41 -19 30 -8 44 -16 41 -24 -3 -9 7
-14 30 -17 41 -5 206 69 184 82 -19 12 -2 49 33 71 36 21 68 25 64 7 -1 -7 8
-17 21 -23 12 -5 20 -16 17 -22 -2 -7 3 -13 11 -13 8 0 13 -4 10 -9 -4 -5 7
-20 23 -34 17 -14 28 -27 25 -30 -3 -3 4 -8 15 -12 12 -3 19 -11 16 -16 -4 -5
-1 -9 5 -9 6 0 9 -4 5 -9 -3 -5 6 -18 20 -29 13 -11 22 -22 19 -24 -2 -3 15
-23 40 -46 24 -22 41 -43 38 -46 -3 -3 2 -6 12 -6 9 0 15 -4 11 -9 -3 -5 4
-16 15 -24 11 -7 17 -17 14 -20 -4 -3 5 -12 19 -18 15 -7 24 -16 21 -20 -3 -5
0 -9 6 -9 6 0 8 -4 5 -10 -3 -5 5 -12 19 -16 15 -3 23 -11 20 -19 -3 -7 5 -20
18 -29 12 -9 19 -16 14 -16 -5 0 -3 -6 3 -14 21 -25 68 -27 118 -5 27 11 91
27 143 35 103 15 219 42 235 54 18 13 107 20 120 10 12 -10 125 19 149 39 6 5
26 12 44 16 21 4 32 13 32 24 0 11 34 33 110 69 61 28 116 52 124 52 7 0 19 7
26 15 7 8 23 15 35 15 12 0 39 16 59 35 21 19 41 35 46 35 5 0 60 35 122 78
106 73 341 193 354 180 16 -17 157 44 196 84 19 21 36 28 63 28 39 0 125 32
265 98 47 22 126 57 175 77 50 20 122 52 162 71 77 36 119 44 110 20 -4 -10 7
-16 40 -21 25 -4 67 -21 94 -38 26 -18 66 -43 88 -56 22 -14 38 -28 35 -33 -3
-4 6 -8 20 -8 15 0 44 -16 71 -40 25 -22 44 -40 40 -40 -10 0 59 -55 88 -69
15 -8 26 -21 25 -30 -2 -11 6 -17 30 -19 26 -3 32 -7 32 -28 0 -13 -6 -24 -12
-24 -12 -1 22 -22 85 -53 15 -7 24 -16 20 -20 -3 -4 -1 -7 6 -7 9 0 12 -9 9
-25 -3 -14 -1 -25 4 -25 5 0 6 -5 3 -10 -3 -6 1 -13 9 -16 9 -3 14 -10 11 -14
-6 -9 69 -47 108 -55 15 -3 25 -10 22 -15 -3 -5 4 -15 15 -23 11 -7 17 -16 15
-19 -3 -3 8 -17 24 -31 16 -13 27 -28 24 -31 -4 -3 0 -6 7 -6 7 0 10 -3 6 -7
-11 -11 56 -73 79 -73 24 0 122 -60 121 -75 -1 -5 18 -16 41 -25 24 -9 48 -21
55 -28 7 -7 16 -12 21 -12 12 0 57 -36 52 -42 -2 -2 14 -15 36 -28 31 -19 39
-30 36 -47 -4 -24 9 -33 51 -33 14 0 46 -10 70 -21 24 -12 58 -23 76 -23 39
-2 144 -34 151 -47 4 -5 27 -9 53 -10 52 0 84 -10 83 -24 -1 -6 16 -11 36 -13
21 -2 45 -9 53 -16 8 -8 28 -16 43 -20 20 -5 27 -12 23 -21 -3 -9 3 -19 15
-25 16 -9 24 -6 48 20 27 30 32 32 102 30 41 0 109 4 152 11 81 12 165 0 152
-21 -4 -6 -1 -10 5 -10 6 0 9 -4 6 -9 -7 -11 17 -21 48 -21 13 0 31 -9 42 -21
15 -17 26 -20 57 -15 43 7 90 -2 81 -15 -3 -5 0 -9 5 -9 15 0 14 -26 -2 -42
-8 -7 -17 -25 -20 -39 -4 -15 -16 -29 -27 -32 -12 -3 -20 -14 -20 -26 0 -14
-8 -23 -25 -27 -13 -3 -29 -12 -35 -19 -7 -9 -42 -13 -108 -14 -174 -2 -283
-10 -310 -24 -22 -10 -26 -18 -24 -45 3 -30 1 -32 -27 -32 -22 0 -36 9 -55 33
-15 19 -26 39 -26 45 0 6 -10 22 -23 35 -24 27 -51 32 -237 43 -52 3 -100 10
-106 15 -6 5 -58 14 -115 20 -77 8 -109 16 -125 30 -11 10 -26 19 -32 19 -7 0
-40 14 -73 31 -56 28 -111 36 -108 15 0 -5 -5 -13 -13 -17 -11 -8 -11 -11 1
-18 9 -6 12 -20 9 -40 -2 -17 0 -31 5 -31 5 0 7 -11 5 -25 -3 -14 -1 -25 3
-25 5 0 9 -7 9 -15 0 -8 -5 -15 -11 -15 -5 0 -7 -4 -4 -10 3 -5 1 -10 -5 -10
-6 0 -8 -4 -5 -10 3 -5 1 -10 -5 -10 -6 0 -9 -4 -6 -9 4 -5 1 -11 -5 -13 -13
-4 -19 -88 -6 -88 4 0 7 -18 7 -40 0 -22 -4 -40 -8 -40 -5 0 -9 -7 -9 -15 0
-8 4 -15 9 -15 4 0 8 -7 8 -15 0 -8 -3 -15 -7 -15 -13 0 -6 -234 6 -238 12 -4
15 -52 4 -52 -5 0 -8 -13 -8 -30 0 -16 4 -30 8 -30 5 0 7 -32 5 -70 -2 -39 1
-70 5 -70 5 0 7 -23 5 -50 -1 -28 1 -50 6 -50 4 0 5 -7 2 -15 -3 -9 1 -18 9
-21 8 -4 12 -10 9 -15 -3 -5 0 -9 7 -9 6 0 9 -8 6 -20 -3 -11 -1 -20 4 -20 5
0 9 -13 9 -30 0 -16 -4 -30 -8 -30 -4 0 -8 -9 -8 -20 0 -11 4 -20 9 -20 4 0 5
-4 2 -10 -3 -5 -1 -10 5 -10 8 0 11 -18 8 -55 -1 -30 0 -55 5 -55 13 0 8 -50
-5 -51 -10 0 -10 -2 0 -6 14 -6 16 -33 2 -33 -5 0 -7 -7 -3 -16 4 -10 0 -20
-10 -26 -9 -4 -14 -14 -12 -21 2 -6 -17 -28 -42 -47 -44 -34 -46 -37 -47 -93
0 -31 2 -57 7 -57 4 0 7 -11 7 -25 0 -14 -4 -25 -8 -25 -5 0 -9 -7 -9 -15 0
-8 5 -15 10 -15 5 0 7 -7 3 -15 -3 -8 -1 -15 4 -15 15 0 12 -87 -2 -94 -10 -5
-10 -7 0 -12 13 -6 17 -54 5 -54 -5 0 -8 -13 -8 -30 0 -16 3 -30 8 -30 4 0 7
-25 7 -55 0 -30 -4 -55 -9 -55 -4 0 -6 -11 -3 -25 2 -14 0 -25 -5 -25 -5 0 -7
-16 -5 -35 2 -19 0 -35 -5 -35 -5 0 -7 -19 -5 -41 3 -27 0 -45 -9 -51 -11 -7
-11 -11 -1 -15 13 -5 17 -33 5 -33 -5 0 -6 -22 -5 -50 2 -27 0 -50 -5 -50 -5
0 -7 -16 -5 -35 3 -21 0 -35 -7 -35 -6 0 -8 -7 -5 -15 4 -8 2 -15 -2 -15 -5 0
-7 -22 -6 -50 2 -29 0 -50 -6 -50 -6 0 -8 -9 -5 -20 3 -11 1 -20 -4 -20 -6 0
-8 -11 -5 -25 2 -14 0 -25 -7 -25 -5 0 -8 -7 -5 -15 4 -8 2 -15 -2 -15 -5 0
-7 -25 -6 -55 2 -30 0 -55 -5 -55 -4 0 -6 -25 -5 -56 3 -45 0 -58 -15 -69 -10
-8 -14 -15 -8 -15 5 0 -1 -7 -13 -16 -12 -8 -20 -20 -17 -25 4 -5 1 -9 -6 -9
-7 0 -9 -3 -6 -6 3 -4 -20 -28 -53 -54 -33 -26 -56 -50 -53 -54 3 -3 1 -6 -5
-6 -7 0 -36 -22 -65 -49 -65 -58 -97 -69 -133 -44 -29 21 -28 48 7 138 22 57
23 71 22 319 -1 250 -2 260 -22 275 -13 10 -22 32 -26 61 -12 109 -27 191 -47
262 -9 31 -8 41 5 55 14 16 14 26 2 90 -17 91 -26 107 -67 122 -18 7 -46 19
-61 27 -16 8 -35 14 -43 14 -7 0 -16 12 -19 28 -15 68 -32 114 -63 166 -20 33
-21 43 -12 61 10 20 6 31 -31 86 -23 35 -47 69 -54 74 -6 6 -21 27 -34 48 -12
20 -27 37 -32 37 -5 0 -15 11 -21 25 -6 14 -21 28 -32 30 -24 6 -90 -15 -95
-30 -2 -5 -33 -26 -70 -45 -36 -19 -80 -45 -96 -56 -17 -12 -41 -25 -55 -29
-14 -4 -32 -13 -40 -20 -15 -12 -200 -124 -230 -139 -21 -10 -50 -27 -85 -51
-17 -12 -64 -38 -105 -59 -41 -21 -108 -57 -149 -80 l-75 -42 3 -57 c2 -42 -1
-57 -11 -57 -10 0 -9 -3 2 -10 9 -6 11 -13 5 -17 -5 -5 -10 -17 -10 -28 0 -11
5 -23 10 -27 7 -6 7 -11 0 -15 -13 -10 -15 -53 -2 -53 5 0 7 -7 3 -15 -3 -8
-1 -15 4 -15 6 0 10 -20 10 -45 0 -36 -4 -45 -17 -46 -11 0 -13 -3 -5 -6 21
-8 13 -33 -10 -33 -21 -1 -22 -2 -5 -14 20 -15 23 -66 5 -67 -10 0 -10 -2 0
-6 14 -6 18 -193 3 -193 -5 0 -7 -9 -4 -20 3 -11 0 -20 -6 -20 -5 0 -8 -7 -5
-15 3 -8 -2 -22 -12 -32 -12 -13 -19 -14 -22 -5 -2 6 -8 12 -13 12 -4 0 -6 -7
-3 -15 4 -8 10 -15 16 -15 13 0 38 -26 38 -39 0 -6 -4 -11 -9 -11 -4 0 -6 -11
-3 -25 4 -25 4 -26 -52 -21 -31 2 -56 1 -56 -4 0 -4 -19 -7 -42 -5 -37 3 -40
2 -20 -7 24 -12 31 -34 7 -24 -52 21 -51 21 -36 3 7 -9 20 -17 27 -17 17 0 19
-20 2 -21 -7 0 -29 -3 -48 -5 -19 -3 -46 -6 -59 -6 -16 0 -20 -3 -11 -8 7 -4
9 -13 6 -19 -4 -6 -2 -11 4 -11 7 0 10 -7 6 -15 -7 -19 1 -19 20 0 9 8 11 15
5 15 -6 0 -11 6 -11 13 0 17 82 22 111 6 17 -9 23 -8 30 2 4 7 12 10 16 5 4
-5 2 -11 -4 -13 -18 -6 -16 -23 2 -23 8 0 15 -4 15 -10 0 -15 -19 -12 -37 6
-9 8 -22 13 -30 9 -10 -3 -13 -1 -10 9 4 10 1 13 -8 9 -8 -3 -13 -9 -10 -13 3
-5 -3 -14 -12 -19 -14 -9 -12 -10 15 -6 24 4 32 2 32 -10 0 -8 -7 -16 -15 -16
-28 -3 -33 -4 -41 -11 -4 -5 -2 -8 4 -8 7 0 12 -4 12 -9 0 -5 -21 -6 -46 -3
-34 3 -45 2 -40 -7 5 -7 -3 -11 -22 -11 -33 0 -41 -29 -10 -38 10 -2 18 -9 18
-14 0 -5 -10 -6 -22 -3 -23 7 -23 7 -3 -8 25 -19 19 -25 -29 -31 -43 -5 -52
-11 -37 -21 6 -3 11 -1 11 6 0 8 4 8 15 -1 10 -9 15 -9 15 -1 0 6 7 11 15 11
19 0 20 -19 1 -26 -8 -3 -12 -12 -9 -20 3 -8 0 -14 -6 -14 -15 0 -14 -37 2
-43 21 -7 3 -17 -21 -10 -13 3 -21 12 -20 22 2 9 -3 15 -9 14 -7 -2 -13 3 -13
11 0 7 -11 21 -25 30 -29 19 -34 49 -7 44 22 -5 72 40 55 50 -6 4 -15 20 -18
35 -4 15 -11 27 -15 27 -10 0 -8 -20 3 -37 5 -7 5 -18 1 -25 -4 -6 -3 -8 4 -4
6 3 13 2 17 -4 3 -5 4 -10 1 -10 -2 0 -11 -3 -19 -6 -11 -4 -19 6 -27 32 -8
24 -15 32 -20 24 -10 -16 -40 -6 -40 14 0 7 -9 16 -20 19 -11 3 -18 1 -14 -4
3 -5 0 -9 -5 -9 -6 0 -11 11 -11 25 0 16 6 25 16 25 8 0 12 -4 9 -10 -3 -5 1
-10 9 -10 10 0 13 6 10 15 -5 11 -2 13 10 9 10 -4 16 -15 14 -27 -2 -11 3 -22
10 -24 7 -3 12 5 12 20 0 16 7 26 20 30 24 6 26 30 4 52 -15 15 -18 15 -38 -3
-21 -19 -77 -42 -102 -42 -8 0 -17 12 -20 26 -4 16 -12 23 -20 20 -9 -3 -14 1
-14 12 0 9 -12 30 -26 45 -16 18 -24 35 -21 48 3 10 1 19 -3 19 -12 0 -40 29
-40 42 0 6 6 6 15 -2 13 -11 14 -10 9 4 -8 20 -18 20 -33 2 -9 -11 -9 -15 1
-20 10 -5 10 -7 1 -12 -18 -8 -16 -25 2 -18 18 7 20 -7 3 -25 -7 -8 -8 -11 -3
-8 14 8 48 -19 40 -32 -3 -6 -1 -11 6 -11 6 0 9 -8 6 -19 -3 -12 1 -22 10 -25
8 -3 12 -10 8 -15 -3 -5 8 -18 25 -27 29 -18 39 -34 21 -34 -5 0 -7 -9 -4 -20
3 -11 9 -20 14 -20 5 0 9 -5 9 -11 0 -6 -7 -8 -17 -4 -14 5 -15 4 -6 -6 10
-10 9 -16 -4 -31 -10 -11 -11 -18 -5 -18 13 0 16 -26 5 -33 -5 -2 -3 -2 4 -1
7 2 15 -2 19 -7 3 -6 15 -9 25 -6 10 3 21 1 24 -4 3 -4 -5 -11 -19 -15 -16 -4
-23 -11 -19 -20 3 -9 -2 -14 -13 -14 -15 0 -19 -7 -18 -35 1 -49 11 -54 19
-11 4 20 12 36 17 36 6 0 8 -6 5 -14 -3 -8 -1 -17 6 -20 9 -3 8 -7 -2 -14 -8
-6 -9 -12 -3 -16 6 -3 22 5 36 19 17 17 39 26 70 29 25 2 46 0 46 -5 0 -5 -6
-9 -14 -9 -7 0 -19 -7 -26 -15 -9 -10 -9 -15 -1 -15 6 0 11 5 11 10 0 6 7 10
15 10 20 0 19 -16 -1 -24 -8 -3 -12 -10 -9 -16 9 -15 -14 -12 -31 4 -10 10
-22 12 -42 6 -44 -13 -78 -29 -64 -29 6 -1 12 -5 12 -11 0 -6 -27 -10 -60 -10
-71 0 -81 17 -12 23 46 3 46 3 -10 5 -50 2 -58 5 -58 21 0 11 -3 27 -7 37 -4
11 -3 15 4 11 7 -5 9 0 6 13 -3 11 0 20 6 20 6 0 11 5 11 11 0 6 -7 9 -15 5
-18 -6 -21 19 -4 30 8 4 9 28 5 70 -4 41 -3 64 4 64 5 0 10 7 10 15 0 8 -7 15
-15 15 -8 0 -15 7 -15 16 0 10 -6 13 -19 9 -12 -4 -21 0 -26 12 -11 27 -17
115 -8 110 5 -3 7 10 5 29 -2 19 -8 34 -13 34 -5 0 -9 7 -9 16 0 11 6 14 23 9
19 -5 20 -4 5 5 -13 8 -18 24 -18 55 0 33 4 45 18 48 13 4 11 5 -5 6 -29 1
-31 31 -3 38 11 3 20 12 20 19 0 8 7 14 15 14 8 0 12 6 9 14 -3 8 0 17 5 21
15 8 4 25 -15 25 -8 0 -12 -5 -9 -10 7 -11 -18 -40 -34 -40 -6 0 -11 5 -11 10
0 6 7 10 15 10 9 0 15 9 15 23 0 12 13 32 30 46 l30 23 -22 23 c-12 13 -28 21
-35 18 -7 -3 -13 2 -13 10 0 8 6 17 13 20 9 3 8 9 -5 22 -16 17 -17 17 -11 -3
3 -13 1 -22 -6 -22 -6 0 -11 7 -11 15 0 8 -4 15 -9 15 -5 0 -7 -9 -4 -20 3
-11 0 -20 -6 -20 -5 0 -8 -7 -4 -16 3 -9 0 -20 -8 -25 -10 -6 -10 -9 -1 -9 6
0 12 -7 12 -15 0 -8 -4 -15 -8 -15 -4 0 -8 -9 -8 -20 0 -15 5 -18 23 -14 17 5
23 2 23 -10 0 -9 -6 -16 -12 -15 -7 1 -25 -1 -39 -5 -21 -6 -25 -12 -21 -31 2
-14 9 -22 16 -19 7 3 19 -3 27 -12 12 -15 12 -16 -9 -10 -13 5 -22 3 -22 -3 0
-6 5 -11 11 -11 5 0 7 -4 4 -10 -3 -5 -1 -10 5 -10 6 0 8 -4 5 -10 -3 -5 -1
-10 4 -10 15 0 14 -30 -1 -31 -10 0 -10 -2 0 -6 6 -2 12 -9 12 -15 0 -6 -6 -8
-14 -5 -8 3 -20 -1 -28 -10 -11 -13 -11 -17 0 -21 10 -3 9 -8 -4 -23 -18 -20
-34 -17 -34 7 0 8 5 12 10 9 6 -3 10 5 10 19 0 13 3 32 6 40 5 12 2 15 -10 10
-9 -3 -16 -2 -16 4 0 6 6 12 13 15 6 2 12 18 12 35 0 18 -4 30 -10 28 -5 -1
-9 -10 -7 -20 2 -9 -2 -16 -7 -16 -6 0 -8 -7 -5 -15 4 -8 2 -15 -2 -15 -5 0
-9 -11 -9 -25 0 -14 3 -25 8 -25 4 0 7 -7 7 -15 0 -8 -4 -15 -9 -15 -5 0 -7
-9 -4 -20 4 -15 0 -20 -13 -20 -15 0 -16 -2 -5 -9 7 -5 10 -14 7 -20 -4 -6 -2
-11 4 -11 6 0 8 -4 5 -10 -3 -5 1 -10 10 -10 11 0 15 -5 11 -15 -3 -9 0 -15
10 -15 8 0 12 -5 9 -10 -10 -16 -55 -12 -55 6 0 8 5 12 11 8 8 -4 8 0 0 15 -7
11 -15 21 -19 21 -21 -1 -42 -40 -21 -40 6 0 8 -7 5 -15 -4 -11 0 -15 11 -13
9 2 18 -3 20 -9 3 -8 -5 -13 -19 -14 -12 0 -17 -3 -10 -6 6 -2 12 -11 12 -19
0 -8 5 -14 10 -14 18 0 11 -20 -7 -21 -17 -1 -17 -2 0 -6 19 -5 23 -19 5 -25
-20 -7 -18 -38 3 -38 10 0 19 -4 19 -10 0 -10 -13 -14 -37 -11 -7 1 -9 -7 -6
-19 3 -12 0 -20 -6 -20 -7 0 -9 -5 -5 -11 3 -6 0 -15 -7 -20 -10 -6 -11 -9 -1
-9 6 0 12 -7 12 -15 0 -8 -5 -15 -11 -15 -5 0 -7 -4 -4 -10 3 -5 -2 -11 -12
-11 -17 -1 -17 -2 0 -6 21 -5 23 -23 2 -23 -8 0 -12 -6 -9 -14 3 -8 -2 -16
-13 -19 -10 -3 -4 -5 15 -6 47 -2 39 -21 -9 -21 -45 0 -83 -16 -73 -31 3 -5 0
-16 -6 -24 -7 -8 -10 -15 -6 -15 4 0 -1 -11 -10 -25 -9 -14 -13 -25 -9 -25 4
0 2 -6 -4 -13 -6 -8 -8 -17 -5 -20 4 -3 3 -14 -1 -24 -5 -10 -9 -21 -10 -25
-2 -5 -4 -10 -5 -13 -1 -3 -4 -9 -5 -15 -1 -5 -4 -12 -5 -15 -1 -3 -4 -9 -5
-15 -1 -5 -4 -13 -5 -17 -1 -5 -1 -18 -1 -30 1 -11 -3 -24 -9 -28 -5 -3 -8
-10 -5 -15 3 -5 1 -11 -4 -15 -6 -3 -8 -12 -5 -19 3 -8 0 -17 -5 -21 -6 -3 -9
-10 -6 -15 3 -5 -1 -20 -10 -34 -12 -18 -13 -25 -4 -28 8 -3 10 -11 4 -24 -4
-10 -7 -27 -6 -36 1 -10 -3 -18 -9 -18 -6 0 -8 -4 -5 -10 3 -5 1 -10 -6 -10
-7 0 -10 -3 -6 -6 3 -4 -4 -15 -16 -25 -12 -10 -18 -18 -13 -19 5 0 -4 -10
-20 -23 -16 -12 -32 -21 -37 -19 -5 1 -5 -3 -1 -9 3 -6 0 -15 -7 -20 -11 -7
-11 -9 2 -9 11 0 17 -9 17 -25 0 -14 -5 -25 -10 -25 -5 0 -7 -4 -4 -9 3 -5 0
-11 -8 -14 -9 -4 -12 -14 -9 -26 3 -12 1 -21 -6 -21 -5 0 -8 -7 -5 -15 4 -8 2
-15 -4 -15 -5 0 -8 -11 -7 -25 2 -14 0 -25 -4 -25 -5 0 -6 -11 -3 -25 2 -15 0
-25 -7 -25 -7 0 -9 -4 -6 -10 3 -5 1 -10 -5 -10 -6 0 -8 -4 -5 -10 3 -5 2 -10
-3 -10 -5 0 -7 -11 -4 -25 2 -15 0 -25 -7 -25 -7 0 -10 -4 -7 -9 3 -5 -1 -12
-10 -15 -8 -3 -12 -10 -9 -16 3 -5 1 -10 -5 -10 -6 0 -8 -5 -5 -10 3 -6 1 -10
-5 -10 -6 0 -8 -4 -5 -10 3 -5 0 -10 -8 -10 -10 0 -13 -7 -10 -20 3 -12 0 -20
-6 -20 -7 0 -9 -5 -5 -11 3 -6 -1 -10 -12 -9 -32 4 -44 0 -44 -11 0 -6 7 -9
15 -6 8 4 17 2 20 -3 4 -6 1 -10 -6 -10 -8 0 -8 -4 2 -16 11 -13 10 -17 -4
-26 -10 -5 -15 -13 -12 -19 4 -5 2 -9 -2 -9 -5 0 -7 -15 -5 -33 3 -29 0 -35
-30 -49 -41 -19 -99 -38 -120 -38 -19 0 -51 -34 -41 -44 4 -4 0 -12 -10 -17
-9 -6 -15 -14 -12 -19 3 -4 -26 -21 -65 -36 -38 -15 -67 -30 -65 -35 3 -4 -21
-17 -52 -29 -32 -12 -85 -36 -118 -55 -33 -18 -81 -36 -107 -40 -28 -4 -45
-11 -42 -17 9 -15 -16 -28 -52 -28 -36 0 -47 18 -38 56 4 14 2 24 -5 24 -6 0
-11 15 -11 34 0 19 -4 36 -10 38 -15 5 -25 125 -11 141 6 9 8 27 4 47 -5 29
-4 32 11 27 15 -6 14 -1 -5 33 -13 22 -28 40 -35 40 -35 0 -47 107 -18 150 27
40 45 50 92 50 74 0 79 7 69 92 -5 40 -18 125 -29 188 -11 63 -22 152 -24 197
-2 46 -9 102 -15 125 -12 50 -26 136 -35 226 -4 36 -12 66 -19 69 -9 3 -12 28
-12 77 1 43 -3 79 -10 88 -7 7 -12 36 -12 63 0 60 -17 193 -31 254 -6 24 -9
45 -8 47 2 1 21 -1 41 -6 32 -7 36 -6 26 6 -6 8 -21 14 -33 14 -12 0 -29 8
-37 18 -30 32 -60 53 -69 47 -10 -6 -12 -1 -14 28 -1 6 -13 20 -28 29 -15 10
-30 29 -34 43 -3 14 -10 25 -15 25 -5 0 -9 7 -9 15 0 8 -4 15 -10 15 -5 0 -12
11 -16 25 -3 14 -10 25 -14 25 -5 0 -11 8 -15 18 -3 9 -19 33 -36 52 -17 19
-27 28 -23 20 4 -8 14 -23 22 -33 15 -17 12 -17 -44 -15 -32 2 -66 9 -74 16
-49 43 -168 122 -183 122 -10 0 -20 6 -23 14 -3 8 -16 17 -30 20 -13 4 -24 11
-24 17 0 6 -4 7 -10 4 -5 -3 -10 1 -10 9 0 9 -5 16 -11 16 -5 0 -7 -5 -3 -11
5 -8 -1 -10 -19 -5 -20 5 -35 -2 -71 -31 -24 -21 -56 -46 -70 -56 -15 -10 -23
-23 -20 -32 4 -8 1 -15 -5 -15 -6 0 -8 -6 -5 -13 3 -8 -7 -19 -22 -26 -15 -6
-24 -14 -21 -17 3 -3 -9 -19 -28 -35 -33 -29 -35 -37 -20 -73 5 -12 5 -21 -1
-23 -6 -2 -8 -19 -6 -38 2 -19 0 -35 -5 -35 -5 0 -7 -16 -5 -35 2 -19 0 -35
-6 -35 -5 0 -7 -11 -4 -25 2 -15 0 -25 -7 -25 -7 0 -9 -4 -6 -10 3 -6 1 -10
-6 -10 -7 0 -10 -3 -6 -6 3 -3 -6 -16 -21 -29 -24 -20 -25 -24 -12 -40 11 -13
12 -19 3 -22 -7 -2 -9 -11 -6 -19 3 -8 0 -14 -6 -14 -6 0 -8 -7 -4 -16 4 -10
-1 -20 -11 -26 -9 -5 -14 -13 -11 -19 4 -5 1 -9 -5 -9 -6 0 -8 -4 -5 -10 3 -5
2 -10 -4 -10 -6 0 -8 -7 -5 -15 4 -8 1 -15 -6 -15 -6 0 -8 -5 -5 -10 3 -5 2
-10 -3 -10 -5 0 -7 -11 -4 -25 2 -15 0 -25 -7 -25 -7 0 -9 -4 -6 -10 3 -5 2
-10 -3 -10 -5 0 -7 -14 -4 -30 2 -17 0 -30 -5 -30 -6 0 -8 -11 -5 -25 2 -14 0
-25 -7 -25 -5 0 -8 -7 -5 -15 4 -8 2 -15 -4 -15 -6 0 -8 -9 -5 -20 3 -12 0
-20 -6 -20 -7 0 -9 -4 -6 -10 3 -5 1 -10 -5 -10 -6 0 -8 -5 -5 -10 3 -5 2 -10
-4 -10 -6 0 -8 -7 -5 -15 4 -8 1 -15 -7 -15 -7 0 -10 -2 -7 -6 3 -3 -18 -28
-48 -56 -29 -28 -51 -54 -49 -58 3 -4 -2 -11 -11 -14 -8 -3 -12 -10 -9 -16 3
-5 1 -10 -5 -10 -6 0 -9 -4 -6 -9 3 -5 -1 -12 -10 -15 -8 -3 -12 -10 -9 -16 3
-5 1 -10 -6 -10 -7 0 -9 -3 -6 -7 4 -3 -2 -13 -13 -20 -11 -8 -18 -19 -15 -24
4 -5 1 -9 -5 -9 -6 0 -8 -5 -5 -10 3 -6 1 -10 -5 -10 -6 0 -9 -4 -6 -9 3 -5
-1 -12 -10 -15 -8 -3 -13 -10 -10 -15 3 -5 -1 -11 -9 -15 -8 -3 -12 -12 -9
-21 3 -8 1 -15 -5 -15 -6 0 -8 -7 -5 -15 4 -8 1 -15 -5 -15 -6 0 -8 -7 -5 -15
4 -8 1 -15 -6 -15 -6 0 -8 -4 -5 -10 3 -5 -11 -24 -31 -42 -20 -18 -51 -46
-68 -61 -32 -28 -100 -69 -124 -73 -11 -2 -71 14 -72 19 -8 33 -16 206 -11
217 5 8 4 49 -1 90 -14 106 2 170 60 232 24 26 53 48 65 50 19 3 23 15 39 113
10 61 34 173 53 250 34 140 43 189 65 383 11 89 10 110 -3 155 -10 32 -18 109
-21 197 -4 112 -9 157 -24 195 -76 191 -124 439 -111 562 9 82 -2 129 -42 187
-51 71 -49 107 10 206 54 90 60 110 36 110 -22 0 -34 40 -28 89 l6 42 -49 -3
-49 -3 -40 -81 c-22 -45 -44 -91 -50 -102 -18 -36 -46 -96 -66 -139 -10 -24
-24 -43 -31 -44 -7 0 -78 -1 -158 -3 -80 -1 -157 -8 -171 -14 -15 -6 -83 -13
-152 -16 l-125 -4 -29 31 c-16 18 -35 49 -41 69 -11 32 -11 42 3 69 16 30 16
32 -6 55 -12 13 -28 24 -35 24 -22 0 -62 83 -88 183 -14 53 -26 100 -26 103 0
3 -27 33 -59 67 l-59 62 -11 90 c-5 50 -20 169 -31 265 -12 96 -24 205 -27
241 l-6 66 39 40 c53 54 67 60 169 73 88 11 125 23 125 40 0 11 65 30 105 30
17 0 62 9 100 21 86 26 87 27 105 38 26 17 168 81 178 81 12 0 51 46 73 88 10
16 42 46 73 66 54 34 71 65 46 81 -5 3 -10 19 -10 34 0 23 26 54 143 168 78
77 173 168 210 204 38 35 78 84 91 109 47 95 70 135 83 143 7 4 13 16 13 26 0
10 7 24 15 31 8 7 15 18 15 26 0 7 7 17 15 21 16 9 105 183 105 206 0 7 4 17
9 23 15 14 91 197 91 217 0 27 16 21 93 -37z m2697 -3976 c0 -5 -4 -10 -10
-10 -5 0 -10 5 -10 10 0 6 5 10 10 10 6 0 10 -4 10 -10z m60 -21 c0 -5 -9 -9
-20 -9 -19 0 -26 11 -14 23 8 8 34 -3 34 -14z m-83 -114 c8 -9 12 -19 8 -23
-4 -4 -10 -1 -12 6 -3 6 -11 12 -19 12 -8 0 -14 5 -14 10 0 15 19 12 37 -5z
m-7 -214 c0 -5 -6 -12 -12 -14 -10 -4 -10 -8 1 -15 7 -5 10 -15 7 -21 -4 -6
-2 -11 3 -11 6 0 11 -4 11 -10 0 -19 -17 -10 -28 15 -16 36 -15 65 3 65 8 0
15 -4 15 -9z m712 -53 c-6 -6 -15 -8 -19 -4 -4 4 -1 11 7 16 8 5 17 7 19 4 3
-2 -1 -10 -7 -16z m98 3 c0 -5 -12 -12 -27 -16 -22 -5 -24 -8 -12 -16 11 -8
11 -12 1 -16 -6 -2 -10 -9 -6 -14 3 -5 1 -9 -4 -9 -5 0 -7 -11 -4 -25 2 -14 0
-25 -7 -25 -5 0 -8 -7 -5 -15 4 -8 2 -15 -3 -15 -6 0 -16 19 -23 41 -8 24 -22
44 -32 47 -10 2 -18 7 -18 11 0 13 61 53 74 48 7 -3 19 -1 27 4 18 11 39 11
39 0z m-807 -45 c18 -14 24 -66 7 -66 -5 0 -10 9 -10 20 0 11 -7 20 -15 20 -8
0 -15 -4 -15 -10 0 -5 5 -10 10 -10 6 0 10 -7 10 -15 0 -22 -27 -18 -33 5 -5
19 12 70 23 70 3 -1 13 -7 23 -14z m167 -26 c0 -5 -4 -10 -10 -10 -5 0 -10 5
-10 10 0 6 5 10 10 10 6 0 10 -4 10 -10z m620 -20 c0 -5 -4 -10 -10 -10 -5 0
-10 5 -10 10 0 6 5 10 10 10 6 0 10 -4 10 -10z m-2380 -10 c0 -5 -4 -10 -10
-10 -5 0 -10 5 -10 10 0 6 5 10 10 10 6 0 10 -4 10 -10z m1530 0 c0 -5 -4 -10
-10 -10 -5 0 -10 5 -10 10 0 6 5 10 10 10 6 0 10 -4 10 -10z m430 -15 c0 -9
-9 -15 -25 -15 -29 0 -34 16 -7 23 30 8 32 7 32 -8z m-403 -27 c7 -6 29 -10
49 -10 30 0 35 -3 31 -19 -6 -22 3 -25 21 -7 6 6 15 9 19 5 3 -4 -2 -14 -13
-22 -18 -14 -18 -14 0 -15 12 0 16 -5 12 -15 -3 -8 -1 -15 4 -15 13 0 13 -77
0 -85 -6 -4 -10 8 -11 27 0 18 -3 27 -6 21 -2 -7 -12 -13 -21 -13 -14 0 -14
-2 -3 -9 7 -5 10 -14 7 -20 -4 -6 -2 -11 3 -11 25 0 9 -20 -16 -21 l-28 -2 28
-4 c32 -5 33 -11 10 -30 -17 -13 -16 -14 5 -8 18 5 22 2 22 -15 0 -15 -5 -20
-14 -17 -10 4 -13 1 -10 -8 3 -8 12 -11 20 -8 8 3 14 1 14 -5 0 -15 -21 -20
-57 -15 -29 5 -33 9 -33 35 0 17 -4 27 -10 23 -12 -7 -14 8 -3 19 4 4 8 22 8
41 0 29 -2 32 -18 23 -26 -14 -35 -1 -11 17 10 7 30 12 44 9 24 -5 24 -5 6 10
-11 9 -23 16 -28 16 -4 0 -8 7 -8 15 0 8 -9 15 -20 15 -11 0 -20 6 -20 14 0 9
7 12 20 9 15 -4 20 0 20 15 0 26 -18 38 -33 23 -18 -18 -24 -13 -25 17 -1 30
21 39 45 20z m743 -12 c0 -8 -4 -18 -10 -21 -5 -3 -10 3 -10 14 0 12 5 21 10
21 6 0 10 -6 10 -14z m-460 -17 c0 -5 -7 -9 -15 -9 -8 0 -15 7 -15 15 0 9 6
12 15 9 8 -4 15 -10 15 -15z m400 1 c0 -5 -4 -10 -10 -10 -5 0 -10 5 -10 10 0
6 5 10 10 10 6 0 10 -4 10 -10z m25 0 c-3 -5 -1 -11 4 -11 6 -1 16 -3 21 -4 6
-1 15 -3 20 -4 6 0 10 -6 10 -11 0 -6 -10 -8 -24 -4 -18 4 -27 1 -35 -15 -9
-17 -9 -20 3 -15 8 3 17 1 20 -4 10 -17 -21 -21 -49 -6 -15 8 -30 12 -33 9 -3
-3 0 -5 7 -5 7 0 9 -4 6 -10 -3 -5 -1 -10 4 -10 6 0 11 -11 11 -25 0 -13 8
-28 17 -34 10 -5 14 -13 10 -17 -4 -4 -16 2 -27 14 -12 12 -32 22 -45 22 -16
0 -25 6 -25 15 0 8 8 15 19 15 14 0 17 6 13 25 -3 16 -11 25 -23 25 -11 0 -19
7 -19 16 0 9 5 12 12 8 6 -4 26 -7 45 -6 19 1 31 -3 28 -8 -3 -6 1 -7 10 -4
12 5 15 14 11 30 -4 14 -2 24 4 24 6 0 8 -4 5 -10z m-369 -56 c-3 -7 0 -11 7
-8 7 2 21 -3 32 -12 20 -15 19 -15 -4 -10 -18 4 -21 2 -12 -7 16 -16 14 -27
-5 -27 -8 0 -12 -4 -9 -10 3 -5 1 -10 -5 -10 -6 0 -9 -4 -6 -9 3 -5 -1 -11 -9
-15 -9 -3 -15 0 -15 8 0 8 -6 16 -12 19 -8 2 -9 8 -4 13 5 5 11 4 13 -3 8 -21
20 -15 25 12 3 14 -1 30 -8 36 -20 16 -18 50 2 42 8 -3 13 -12 10 -19z m442
-11 c8 -8 12 -16 9 -19 -7 -8 -67 28 -67 39 0 11 41 -2 58 -20z m-158 -7 c0
-13 -39 -30 -49 -21 -5 6 29 34 42 35 4 0 7 -6 7 -14z m-365 -16 c-3 -5 -10
-10 -16 -10 -5 0 -9 5 -9 10 0 6 7 10 16 10 8 0 12 -4 9 -10z m483 -12 c-6
-17 -58 -21 -58 -5 0 9 12 14 31 15 18 0 29 -4 27 -10z m-458 -19 c0 -24 -23
-21 -28 4 -2 10 3 17 12 17 10 0 16 -9 16 -21z m-330 1 c0 -5 -4 -10 -10 -10
-5 0 -10 5 -10 10 0 6 5 10 10 10 6 0 10 -4 10 -10z m810 -5 c0 -8 -4 -15 -9
-15 -5 0 -7 -9 -4 -21 4 -12 0 -25 -7 -29 -16 -10 -21 -50 -7 -50 5 0 4 -7 -3
-15 -10 -12 -10 -18 0 -30 8 -10 9 -15 2 -15 -6 0 -9 -7 -6 -15 5 -11 -2 -15
-26 -15 -20 0 -30 4 -28 12 3 7 -6 22 -19 34 -26 24 -30 39 -8 30 8 -3 15 -1
15 4 0 5 9 7 19 5 14 -2 20 3 24 20 2 14 0 22 -4 19 -5 -3 -9 2 -9 10 0 9 7
16 15 16 8 0 18 12 21 28 4 15 9 30 11 35 7 13 23 8 23 -8z m-830 -15 c0 -5
-4 -10 -10 -10 -5 0 -10 5 -10 10 0 6 5 10 10 10 6 0 10 -4 10 -10z m30 -10
c0 -5 -4 -10 -10 -10 -5 0 -10 5 -10 10 0 6 5 10 10 10 6 0 10 -4 10 -10z
m600 -19 c0 -5 -9 -13 -20 -16 -11 -4 -18 -10 -15 -15 3 -4 -2 -10 -10 -14
-16 -6 -18 -2 -9 32 4 15 14 22 30 22 13 0 24 -4 24 -9z m-192 -23 c-5 -32
-28 -35 -28 -4 0 17 5 26 16 26 10 0 14 -7 12 -22z m252 13 c0 -5 -7 -11 -15
-15 -9 -3 -15 0 -15 9 0 8 7 15 15 15 8 0 15 -4 15 -9z m-290 -21 c0 -5 -4
-10 -10 -10 -5 0 -10 5 -10 10 0 6 5 10 10 10 6 0 10 -4 10 -10z m360 -20 c0
-5 -4 -10 -10 -10 -5 0 -10 5 -10 10 0 6 5 10 10 10 6 0 10 -4 10 -10z m70 -5
c0 -8 -4 -15 -10 -15 -5 0 -10 7 -10 15 0 8 5 15 10 15 6 0 10 -7 10 -15z
m-200 -5 c0 -5 -7 -10 -15 -10 -8 0 -15 5 -15 10 0 6 7 10 15 10 8 0 15 -4 15
-10z m-70 -46 c0 -8 -4 -14 -10 -14 -5 0 -10 2 -10 4 0 2 -3 12 -6 20 -5 12
-2 15 10 10 9 -3 16 -12 16 -20z m260 6 c0 -5 -4 -10 -10 -10 -5 0 -10 5 -10
10 0 6 5 10 10 10 6 0 10 -4 10 -10z m-404 -32 c-10 -6 -20 -7 -24 -3 -9 8 20
25 31 18 5 -3 2 -10 -7 -15z m84 -28 c0 -5 -20 -10 -45 -10 -25 0 -45 5 -45
10 0 6 20 10 45 10 25 0 45 -4 45 -10z m100 -10 c0 -5 -11 -10 -25 -10 -14 0
-25 5 -25 10 0 6 11 10 25 10 14 0 25 -4 25 -10z m170 -10 c0 -5 -18 -10 -40
-10 -22 0 -40 5 -40 10 0 6 18 10 40 10 22 0 40 -4 40 -10z"/>
<path d="M2526 7973 c-16 -18 -26 -36 -24 -39 3 -2 11 2 18 11 7 8 18 15 25
15 13 0 28 38 17 43 -4 2 -20 -11 -36 -30z"/>
<path d="M2594 7945 c-10 -8 -14 -14 -9 -15 15 0 40 18 34 24 -3 3 -14 -1 -25
-9z"/>
<path d="M2435 7870 c-26 -29 -14 -33 14 -4 13 13 19 24 14 24 -6 0 -18 -9
-28 -20z"/>
<path d="M2393 7818 c-20 -26 -26 -41 -15 -34 12 7 36 46 29 46 -3 0 -9 -6
-14 -12z"/>
<path d="M2262 7648 c-13 -15 -22 -28 -19 -28 10 0 49 40 45 48 -1 5 -13 -4
-26 -20z"/>
<path d="M4510 7229 c0 -4 -10 -10 -22 -12 -13 -2 -4 -4 19 -3 49 2 64 11 28
18 -14 3 -25 2 -25 -3z"/>
<path d="M4640 7206 c0 -2 8 -10 18 -17 15 -13 16 -12 3 4 -13 16 -21 21 -21
13z"/>
<path d="M4620 7181 c0 -5 5 -13 10 -16 6 -3 10 -2 10 4 0 5 -4 13 -10 16 -5
3 -10 2 -10 -4z"/>
<path d="M4686 7165 c4 -8 12 -15 20 -15 20 0 17 7 -6 20 -16 9 -18 8 -14 -5z"/>
<path d="M4558 7153 c7 -3 16 -2 19 1 4 3 -2 6 -13 5 -11 0 -14 -3 -6 -6z"/>
<path d="M4734 7142 c3 -6 -2 -13 -11 -15 -13 -3 -12 -4 3 -2 22 2 48 -20 40
-34 -3 -4 6 -6 21 -3 19 4 24 2 18 -8 -5 -9 -4 -11 4 -6 6 4 18 2 26 -4 8 -7
15 -10 15 -7 0 4 -28 25 -61 48 -34 23 -59 37 -55 31z"/>
<path d="M2760 7116 c14 -8 27 -12 29 -10 6 6 -1 11 -29 18 l-25 7 25 -15z"/>
<path d="M2945 7082 c3 -3 0 -11 -7 -19 -8 -11 -7 -12 5 -7 21 7 29 31 11 31
-8 0 -12 -3 -9 -5z"/>
<path d="M2988 7073 c7 -3 16 -2 19 1 4 3 -2 6 -13 5 -11 0 -14 -3 -6 -6z"/>
<path d="M6598 7055 c-3 -14 -1 -25 3 -25 5 0 9 11 9 25 0 14 -2 25 -4 25 -2
0 -6 -11 -8 -25z"/>
<path d="M3050 7060 c0 -5 5 -10 11 -10 5 0 7 5 4 10 -3 6 -8 10 -11 10 -2 0
-4 -4 -4 -10z"/>
<path d="M3100 7050 c0 -5 7 -7 15 -4 8 4 15 8 15 10 0 2 -7 4 -15 4 -8 0 -15
-4 -15 -10z"/>
<path d="M4860 7051 c0 -6 7 -14 15 -17 8 -4 13 -10 10 -14 -3 -4 2 -11 11
-14 11 -4 14 -1 12 10 -4 20 -48 52 -48 35z"/>
<path d="M3190 7041 c0 -6 5 -13 10 -16 6 -3 10 -1 10 4 0 6 5 11 11 11 5 0 7
-4 4 -10 -3 -6 1 -7 9 -4 26 10 18 24 -14 24 -16 0 -30 -4 -30 -9z"/>
<path d="M3278 7023 c7 -3 16 -2 19 1 4 3 -2 6 -13 5 -11 0 -14 -3 -6 -6z"/>
<path d="M3338 7023 c7 -3 16 -2 19 1 4 3 -2 6 -13 5 -11 0 -14 -3 -6 -6z"/>
<path d="M4920 7010 c0 -5 5 -10 11 -10 5 0 7 5 4 10 -3 6 -8 10 -11 10 -2 0
-4 -4 -4 -10z"/>
<path d="M3412 6998 c6 -18 45 -18 59 -2 8 10 8 14 0 14 -6 0 -11 -5 -11 -12
0 -9 -3 -9 -12 0 -16 16 -41 15 -36 0z"/>
<path d="M3511 6993 c-1 -15 16 -26 23 -15 3 5 18 8 33 6 l28 -4 -30 10 c-20
6 -31 6 -36 -1 -4 -8 -8 -7 -12 2 -3 9 -6 10 -6 2z"/>
<path d="M6610 6984 c0 -8 5 -12 10 -9 6 4 8 11 5 16 -9 14 -15 11 -15 -7z"/>
<path d="M4954 6982 c3 -6 1 -12 -5 -14 -7 -2 -5 -9 5 -17 14 -12 16 -12 10 4
-6 15 -3 16 17 10 28 -9 24 -3 -10 15 -13 6 -21 7 -17 2z"/>
<path d="M3475 6972 c-18 -13 -16 -34 5 -39 11 -3 17 -10 13 -17 -3 -6 3 -2
15 8 25 22 28 27 10 21 -7 -3 -20 0 -28 5 -13 9 -13 11 0 20 8 5 11 10 5 10
-5 0 -14 -4 -20 -8z"/>
<path d="M3632 6966 c7 -8 15 -12 17 -11 5 6 -10 25 -20 25 -5 0 -4 -6 3 -14z"/>
<path d="M3690 6949 c0 -5 5 -7 10 -4 6 3 10 8 10 11 0 2 -4 4 -10 4 -5 0 -10
-5 -10 -11z"/>
<path d="M3740 6940 c0 -5 5 -10 11 -10 5 0 7 5 4 10 -3 6 -8 10 -11 10 -2 0
-4 -4 -4 -10z"/>
<path d="M3850 6910 c0 -5 7 -7 15 -4 8 4 15 8 15 10 0 2 -7 4 -15 4 -8 0 -15
-4 -15 -10z"/>
<path d="M6617 6900 c-3 -11 -1 -23 4 -26 5 -3 9 6 9 20 0 31 -6 34 -13 6z"/>
<path d="M5083 6880 c-1 -11 3 -23 9 -26 6 -4 5 -10 -3 -15 -11 -7 -10 -9 4
-9 9 0 17 7 17 15 0 8 8 15 18 15 14 0 15 2 2 10 -9 6 -20 5 -29 -3 -12 -10
-14 -9 -8 5 3 10 3 19 -1 22 -4 3 -8 -4 -9 -14z"/>
<path d="M6616 6852 c2 -3 -1 -11 -6 -17 -8 -9 -2 -20 20 -38 17 -14 29 -31
28 -37 -2 -7 8 -19 22 -28 24 -16 25 -16 8 3 -9 11 -19 32 -23 47 -4 15 -12
26 -19 25 -6 -1 -11 6 -11 15 0 10 -5 21 -11 26 -6 5 -9 7 -8 4z"/>
<path d="M2540 6800 c0 -5 5 -10 11 -10 5 0 7 5 4 10 -3 6 -8 10 -11 10 -2 0
-4 -4 -4 -10z"/>
<path d="M4410 6739 c0 -5 5 -7 10 -4 6 3 10 8 10 11 0 2 -4 4 -10 4 -5 0 -10
-5 -10 -11z"/>
<path d="M2625 6730 c3 -5 11 -10 16 -10 6 0 7 5 4 10 -3 6 -11 10 -16 10 -6
0 -7 -4 -4 -10z"/>
<path d="M4443 6725 c0 -8 5 -15 10 -15 5 0 7 -6 4 -14 -4 -10 0 -14 14 -13
10 1 19 5 19 9 0 4 5 8 11 8 6 0 9 -6 6 -14 -6 -14 39 -33 51 -21 3 3 -2 5
-11 5 -10 0 -17 8 -17 18 0 11 -12 22 -31 29 -26 10 -29 10 -19 -3 10 -11 10
-14 0 -14 -6 0 -14 9 -17 20 -6 23 -20 27 -20 5z"/>
<path d="M5295 6720 c3 -5 12 -7 20 -3 21 7 19 13 -6 13 -11 0 -18 -4 -14 -10z"/>
<path d="M2690 6700 c8 -5 22 -9 30 -9 10 0 8 3 -5 9 -27 12 -43 12 -25 0z"/>
<path d="M5266 6702 c-3 -4 4 -9 15 -9 23 -2 25 3 4 10 -8 4 -16 3 -19 -1z"/>
<path d="M5310 6690 c0 -5 5 -10 10 -10 6 0 10 5 10 10 0 6 -4 10 -10 10 -5 0
-10 -4 -10 -10z"/>
<path d="M2747 6679 c7 -7 15 -10 18 -7 3 3 -2 9 -12 12 -14 6 -15 5 -6 -5z"/>
<path d="M3485 6660 c11 -5 27 -9 35 -9 9 0 8 4 -5 9 -11 5 -27 9 -35 9 -9 0
-8 -4 5 -9z"/>
<path d="M4636 6662 c-3 -6 -1 -14 5 -17 15 -10 25 3 12 16 -7 7 -13 7 -17 1z"/>
<path d="M6731 6653 c7 -12 15 -20 18 -17 3 2 -3 12 -13 22 -17 16 -18 16 -5
-5z"/>
<path d="M2120 6656 c0 -2 7 -7 16 -10 8 -3 12 -2 9 4 -6 10 -25 14 -25 6z"/>
<path d="M3548 6643 c7 -3 16 -2 19 1 4 3 -2 6 -13 5 -11 0 -14 -3 -6 -6z"/>
<path d="M5423 6643 c4 -3 2 -11 -3 -18 -7 -8 -2 -10 20 -7 33 5 39 16 14 26
-21 8 -39 8 -31 -1z"/>
<path d="M2500 6633 c1 -10 26 -43 33 -43 3 0 0 11 -6 25 -11 23 -27 34 -27
18z"/>
<path d="M4714 6616 c1 -7 10 -21 20 -32 18 -18 18 -17 12 4 -5 15 -3 22 6 23
7 0 4 4 -7 9 -29 12 -33 12 -31 -4z"/>
<path d="M5550 6590 c0 -6 7 -10 15 -10 8 0 15 2 15 4 0 2 -7 6 -15 10 -8 3
-15 1 -15 -4z"/>
<path d="M4500 6586 c0 -2 7 -7 16 -10 8 -3 12 -2 9 4 -6 10 -25 14 -25 6z"/>
<path d="M2540 6572 c0 -12 19 -26 26 -19 2 2 -2 10 -11 17 -9 8 -15 8 -15 2z"/>
<path d="M4710 6570 c0 -5 5 -10 11 -10 5 0 7 5 4 10 -3 6 -8 10 -11 10 -2 0
-4 -4 -4 -10z"/>
<path d="M4531 6543 c-10 -26 -10 -27 4 -9 8 11 15 23 15 28 0 15 -7 8 -19
-19z"/>
<path d="M4770 6551 c0 -6 5 -13 10 -16 6 -3 10 1 10 9 0 9 -4 16 -10 16 -5 0
-10 -4 -10 -9z"/>
<path d="M4897 6543 c-4 -3 -7 -11 -7 -17 0 -6 4 -5 9 2 10 17 47 11 44 -6 -3
-13 9 -16 20 -5 4 3 -1 12 -11 19 -19 15 -45 18 -55 7z"/>
<path d="M6800 6546 c0 -2 8 -10 18 -17 15 -13 16 -12 3 4 -13 16 -21 21 -21
13z"/>
<path d="M2577 6515 c24 -32 38 -32 17 0 -9 14 -20 25 -26 25 -5 0 -1 -11 9
-25z"/>
<path d="M3968 6513 c7 -3 16 -2 19 1 4 3 -2 6 -13 5 -11 0 -14 -3 -6 -6z"/>
<path d="M4846 6495 c-3 -8 -1 -15 4 -15 6 0 10 7 10 15 0 8 -2 15 -4 15 -2 0
-6 -7 -10 -15z"/>
<path d="M5030 6506 c0 -2 7 -7 16 -10 8 -3 12 -2 9 4 -6 10 -25 14 -25 6z"/>
<path d="M4420 6491 c0 -5 7 -12 16 -15 14 -5 15 -4 4 9 -14 17 -20 19 -20 6z"/>
<path d="M4890 6490 c-8 -5 -10 -10 -5 -10 6 0 17 5 25 10 8 5 11 10 5 10 -5
0 -17 -5 -25 -10z"/>
<path d="M6036 6489 c3 -6 0 -15 -7 -20 -7 -4 -10 -11 -6 -16 9 -8 27 15 27
35 0 6 -5 12 -11 12 -5 0 -7 -5 -3 -11z"/>
<path d="M4780 6475 c-14 -8 -19 -14 -12 -15 21 0 13 -20 -12 -30 -30 -11 -42
-28 -19 -26 20 1 53 31 53 47 0 7 8 18 18 25 23 18 4 17 -28 -1z"/>
<path d="M2617 6460 c10 -11 22 -20 27 -20 5 0 1 9 -9 20 -10 11 -22 20 -26
20 -5 0 -1 -9 8 -20z"/>
<path d="M4090 6470 c8 -5 20 -10 25 -10 6 0 3 5 -5 10 -8 5 -19 10 -25 10 -5
0 -3 -5 5 -10z"/>
<path d="M4916 6464 c-22 -22 -20 -31 2 -11 10 10 22 14 27 10 4 -5 5 -2 1 5
-9 15 -11 15 -30 -4z"/>
<path d="M4690 6459 c11 -8 12 -12 2 -16 -6 -2 -9 -9 -6 -15 4 -6 0 -14 -7
-19 -11 -7 -10 -9 4 -9 9 0 17 6 17 13 0 6 3 22 6 35 5 17 2 22 -12 22 -16 0
-17 -2 -4 -11z"/>
<path d="M4850 6450 c0 -5 5 -10 11 -10 5 0 7 5 4 10 -3 6 -8 10 -11 10 -2 0
-4 -4 -4 -10z"/>
<path d="M4978 6453 c7 -3 16 -2 19 1 4 3 -2 6 -13 5 -11 0 -14 -3 -6 -6z"/>
<path d="M5690 6446 c0 -2 8 -10 18 -17 15 -13 16 -12 3 4 -13 16 -21 21 -21
13z"/>
<path d="M1450 6436 c0 -2 8 -10 18 -17 15 -13 16 -12 3 4 -13 16 -21 21 -21
13z"/>
<path d="M5030 6436 c0 -2 7 -7 16 -10 8 -3 12 -2 9 4 -6 10 -25 14 -25 6z"/>
<path d="M2038 6405 c2 -14 9 -25 14 -25 6 0 7 7 4 16 -3 9 -6 20 -6 25 0 5
-4 9 -9 9 -4 0 -6 -11 -3 -25z"/>
<path d="M2647 6419 c7 -7 15 -10 18 -7 3 3 -2 9 -12 12 -14 6 -15 5 -6 -5z"/>
<path d="M4873 6405 c0 -8 4 -15 9 -15 4 0 8 4 8 9 0 6 -4 12 -8 15 -5 3 -9
-1 -9 -9z"/>
<path d="M5190 6413 c0 -7 8 -17 18 -22 10 -7 13 -14 7 -18 -13 -10 -13 -36 0
-45 15 -11 -44 -68 -64 -61 -14 5 -14 4 1 -13 17 -18 18 -18 31 0 8 11 19 16
25 13 6 -4 8 0 6 10 -4 14 1 18 21 19 19 2 25 -2 21 -12 -3 -8 -1 -14 5 -14 6
0 9 -7 5 -15 -3 -8 -1 -15 4 -15 14 0 12 -44 -2 -59 -11 -10 -10 -11 5 -6 25
10 21 -10 -5 -23 l-23 -11 23 0 c27 -1 30 -21 3 -21 -10 0 -25 -8 -32 -17 -11
-15 -11 -16 1 -5 18 15 44 16 34 0 -5 -8 -2 -9 10 -5 10 4 22 7 27 7 4 0 6 7
3 15 -4 8 -2 15 2 15 5 0 8 24 6 52 -2 39 0 49 7 38 14 -19 14 0 1 20 -9 13
-11 13 -19 0 -6 -8 -13 -11 -18 -7 -4 5 -2 12 6 16 19 12 9 55 -16 66 -13 5
-23 15 -23 21 0 12 42 34 68 35 14 0 13 2 -3 9 -27 12 -37 12 -31 1 6 -9 -16
-21 -39 -21 -7 0 -16 11 -19 25 -4 15 -11 23 -17 19 -6 -4 -15 0 -20 7 -6 9
-9 10 -9 2z m60 -97 c0 -3 -4 -8 -10 -11 -5 -3 -10 -1 -10 4 0 6 5 11 10 11 6
0 10 -2 10 -4z"/>
<path d="M4905 6400 c-3 -5 1 -10 10 -10 9 0 13 5 10 10 -3 6 -8 10 -10 10 -2
0 -7 -4 -10 -10z"/>
<path d="M4946 6398 c3 -5 -4 -18 -17 -29 -12 -10 -17 -19 -11 -19 6 0 17 7
26 15 8 8 19 15 25 15 6 0 8 6 5 13 -3 8 -11 14 -19 14 -8 0 -12 -4 -9 -9z"/>
<path d="M2670 6385 c7 -9 15 -13 17 -11 7 7 -7 26 -19 26 -6 0 -6 -6 2 -15z"/>
<path d="M2138 6376 c-10 -7 -18 -17 -18 -21 0 -4 7 -2 15 5 8 6 19 9 24 5 7
-3 8 0 5 9 -3 9 -7 16 -8 16 0 0 -9 -7 -18 -14z"/>
<path d="M4791 6370 c-30 -26 -14 -26 19 0 14 11 21 20 15 19 -5 0 -21 -9 -34
-19z"/>
<path d="M5004 6379 c-3 -6 -1 -16 5 -22 8 -8 11 -5 11 11 0 24 -5 28 -16 11z"/>
<path d="M1530 6376 c0 -2 8 -10 18 -17 15 -13 16 -12 3 4 -13 16 -21 21 -21
13z"/>
<path d="M4826 6355 c-11 -8 -15 -15 -9 -15 6 0 16 7 23 15 16 19 11 19 -14 0z"/>
<path d="M4870 6360 c0 -5 5 -10 10 -10 6 0 10 5 10 10 0 6 -4 10 -10 10 -5 0
-10 -4 -10 -10z"/>
<path d="M1739 6350 c-5 -63 -9 -95 -13 -107 -3 -7 -1 -13 4 -13 6 0 10 10 11
23 1 21 1 21 8 -2 9 -32 31 -41 24 -9 -3 13 -10 29 -16 35 -5 7 -7 23 -4 35 4
13 2 30 -3 38 -9 13 -10 13 -11 0z"/>
<path d="M4745 6349 c-4 -6 -5 -12 -2 -15 2 -3 7 2 10 11 7 17 1 20 -8 4z"/>
<path d="M4979 6358 c-6 -21 -5 -38 2 -38 5 0 9 9 9 20 0 16 -7 28 -11 18z"/>
<path d="M5045 6350 c3 -5 8 -10 11 -10 2 0 4 5 4 10 0 6 -5 10 -11 10 -5 0
-7 -4 -4 -10z"/>
<path d="M2712 6326 c15 -13 24 -27 21 -30 -4 -3 -1 -6 5 -6 7 0 11 -5 10 -11
-2 -6 3 -14 11 -17 10 -3 6 10 -11 39 -14 24 -34 45 -45 47 -14 2 -13 -2 9
-22z"/>
<path d="M5148 6343 c7 -3 16 -2 19 1 4 3 -2 6 -13 5 -11 0 -14 -3 -6 -6z"/>
<path d="M5010 6321 c0 -6 5 -13 10 -16 6 -3 10 1 10 9 0 9 -4 16 -10 16 -5 0
-10 -4 -10 -9z"/>
<path d="M5442 6319 c2 -7 10 -15 17 -17 8 -3 12 1 9 9 -2 7 -10 15 -17 17 -8
3 -12 -1 -9 -9z"/>
<path d="M1641 6304 c0 -11 3 -14 6 -6 3 7 2 16 -1 19 -3 4 -6 -2 -5 -13z"/>
<path d="M2040 6301 c0 -11 5 -44 11 -72 10 -47 13 -51 24 -35 8 11 15 13 20
7 3 -6 12 -11 18 -11 7 0 -3 14 -21 30 -21 18 -31 34 -26 41 4 8 3 9 -5 5 -8
-6 -10 -1 -6 17 4 14 2 28 -4 31 -7 4 -11 -1 -11 -13z"/>
<path d="M5135 6310 c-3 -5 1 -10 9 -10 9 0 16 5 16 10 0 6 -4 10 -9 10 -6 0
-13 -4 -16 -10z"/>
<path d="M4928 6303 c19 -7 14 -41 -7 -48 -24 -7 -35 -35 -21 -49 8 -8 9 -6 5
7 -5 11 -2 17 8 17 19 0 32 18 41 53 6 23 3 27 -16 26 -13 0 -17 -3 -10 -6z"/>
<path d="M5488 6303 c7 -3 16 -2 19 1 4 3 -2 6 -13 5 -11 0 -14 -3 -6 -6z"/>
<path d="M2131 6284 c0 -11 3 -14 6 -6 3 7 2 16 -1 19 -3 4 -6 -2 -5 -13z"/>
<path d="M5940 6290 c0 -5 5 -10 11 -10 5 0 7 5 4 10 -3 6 -8 10 -11 10 -2 0
-4 -4 -4 -10z"/>
<path d="M1700 6265 c0 -14 2 -25 4 -25 2 0 6 11 8 25 3 14 1 25 -3 25 -5 0
-9 -11 -9 -25z"/>
<path d="M5105 6280 c3 -5 8 -10 11 -10 2 0 4 5 4 10 0 6 -5 10 -11 10 -5 0
-7 -4 -4 -10z"/>
<path d="M5546 6275 c4 -8 11 -15 16 -15 6 0 5 6 -2 15 -7 8 -14 15 -16 15 -2
0 -1 -7 2 -15z"/>
<path d="M4980 6270 c-8 -5 -10 -10 -5 -10 6 0 17 5 25 10 8 5 11 10 5 10 -5
0 -17 -5 -25 -10z"/>
<path d="M5024 6259 c0 -22 -1 -21 20 -13 21 8 20 21 -2 26 -12 4 -18 -1 -18
-13z"/>
<path d="M5076 6255 c4 -8 8 -15 10 -15 2 0 4 7 4 15 0 8 -4 15 -10 15 -5 0
-7 -7 -4 -15z"/>
<path d="M5120 6245 c0 -8 -4 -15 -10 -15 -5 0 -7 -7 -3 -16 4 -12 8 -13 14
-3 6 10 11 10 23 0 13 -11 16 -11 16 2 0 14 -25 47 -36 47 -2 0 -4 -7 -4 -15z"/>
<path d="M5595 6250 c3 -5 11 -10 16 -10 6 0 7 5 4 10 -3 6 -11 10 -16 10 -6
0 -7 -4 -4 -10z"/>
<path d="M2770 6240 c8 -5 20 -10 25 -10 6 0 3 5 -5 10 -8 5 -19 10 -25 10 -5
0 -3 -5 5 -10z"/>
<path d="M5000 6238 c0 -12 -8 -18 -22 -18 -17 0 -19 -3 -9 -9 8 -5 12 -19 9
-35 -3 -14 -1 -26 4 -26 5 0 6 -4 3 -10 -3 -5 -1 -10 4 -10 6 0 11 9 11 20 0
21 15 27 25 10 3 -5 1 -10 -5 -10 -8 0 -8 -6 0 -21 9 -16 14 -18 26 -8 11 9
12 14 3 19 -6 4 -9 12 -5 18 3 5 -5 13 -19 16 -25 6 -36 41 -15 48 6 2 6 8 0
18 -8 13 -10 12 -10 -2z"/>
<path d="M5226 6241 c-3 -5 1 -11 9 -14 9 -4 12 -1 8 9 -6 16 -10 17 -17 5z"/>
<path d="M5494 6219 c0 -22 12 -25 19 -5 3 8 0 16 -6 19 -7 3 -13 -3 -13 -14z"/>
<path d="M5634 6232 c3 -5 -6 -15 -19 -22 -27 -14 -35 -33 -10 -24 8 4 15 10
15 16 0 5 5 6 11 2 6 -3 14 -1 18 5 5 8 13 7 27 -4 18 -14 18 -14 -6 -15 -23
0 -87 -39 -66 -40 5 0 17 6 25 14 9 7 34 17 55 21 37 6 39 5 25 -11 -12 -15
-12 -17 0 -13 30 10 20 27 -30 53 -28 15 -48 23 -45 18z"/>
<path d="M5184 6218 c-16 -25 -11 -48 9 -48 16 0 17 -3 8 -14 -10 -12 -8 -13
8 -9 21 5 30 33 11 33 -5 0 -10 11 -10 25 0 27 -14 33 -26 13z"/>
<path d="M5051 6209 c-19 -8 -22 -12 -12 -22 9 -9 14 -9 21 3 9 13 11 13 19 0
12 -18 26 -7 18 15 -7 17 -12 18 -46 4z"/>
<path d="M2800 6203 c0 -7 10 -21 22 -33 12 -11 18 -20 13 -20 -5 0 4 -13 19
-29 15 -16 27 -32 26 -36 -1 -4 1 -9 4 -12 17 -18 3 27 -15 46 -11 12 -18 29
-15 37 3 8 -1 14 -9 14 -8 0 -21 10 -29 22 -9 12 -16 17 -16 11z"/>
<path d="M5405 6200 c-3 -5 -1 -10 4 -10 6 0 11 5 11 10 0 6 -2 10 -4 10 -3 0
-8 -4 -11 -10z"/>
<path d="M4930 6196 c0 -2 7 -6 15 -10 8 -3 15 -1 15 4 0 6 -7 10 -15 10 -8 0
-15 -2 -15 -4z"/>
<path d="M5446 6184 c-11 -8 -16 -14 -10 -14 13 0 39 18 34 24 -3 2 -14 -2
-24 -10z"/>
<path d="M2075 6170 c-7 -11 3 -55 21 -89 8 -14 14 -33 14 -41 0 -13 1 -13 10
0 5 9 5 19 -2 27 -6 7 -11 31 -12 53 0 30 -4 39 -14 35 -10 -3 -12 0 -8 10 6
17 0 20 -9 5z"/>
<path d="M2327 6170 c9 -10 10 -17 2 -27 -9 -10 -8 -13 1 -13 8 0 11 -9 8 -25
-3 -14 -1 -25 3 -25 17 0 10 77 -8 91 -15 11 -16 11 -6 -1z"/>
<path d="M5112 6171 c-9 -5 -4 -8 16 -7 17 1 28 4 25 9 -6 9 -25 9 -41 -2z"/>
<path d="M5074 6134 c1 -24 16 -35 16 -13 0 8 5 8 15 -1 12 -10 15 -10 15 1 0
8 -11 19 -24 25 -21 10 -24 9 -22 -12z"/>
<path d="M1753 6134 c-3 -8 -2 -19 3 -24 5 -5 9 1 9 16 0 28 -3 30 -12 8z"/>
<path d="M5155 6140 c-3 -5 -1 -10 4 -10 6 0 11 5 11 10 0 6 -2 10 -4 10 -3 0
-8 -4 -11 -10z"/>
<path d="M5650 6141 c-24 -7 -24 -8 8 -12 22 -4 32 -2 32 8 0 14 -3 15 -40 4z"/>
<path d="M5775 6140 c-4 -6 5 -10 20 -10 20 0 26 -4 21 -15 -5 -14 4 -15 44
-5 6 1 -62 39 -72 40 -4 0 -10 -4 -13 -10z"/>
<path d="M5365 6130 c3 -5 -1 -10 -9 -10 -9 0 -13 -6 -10 -15 5 -11 11 -12 25
-4 23 12 25 39 3 39 -8 0 -12 -4 -9 -10z"/>
<path d="M5195 6121 c-3 -5 -1 -12 5 -16 5 -3 10 1 10 9 0 18 -6 21 -15 7z"/>
<path d="M5650 6100 c12 -8 12 -10 -3 -16 -9 -3 -14 -10 -11 -15 3 -5 0 -9 -5
-9 -6 0 -11 7 -11 15 0 8 -8 15 -17 15 -14 0 -15 -2 -5 -9 16 -10 12 -46 -5
-46 -19 0 -37 -22 -24 -29 6 -4 11 -3 11 2 0 6 14 15 31 21 17 6 33 20 36 30
3 11 15 23 27 27 21 7 21 7 1 15 -28 11 -43 11 -25 -1z"/>
<path d="M5700 6106 c0 -2 7 -6 15 -10 8 -3 15 -1 15 4 0 6 -7 10 -15 10 -8 0
-15 -2 -15 -4z"/>
<path d="M5160 6080 c0 -5 5 -10 10 -10 6 0 10 5 10 10 0 6 -4 10 -10 10 -5 0
-10 -4 -10 -10z"/>
<path d="M5520 6075 c-9 -10 -9 -15 -1 -15 6 0 11 4 11 9 0 5 8 12 18 14 14 4
14 5 1 6 -9 0 -22 -6 -29 -14z"/>
<path d="M5893 6076 c0 -8 6 -12 14 -9 7 3 10 9 7 14 -8 14 -21 11 -21 -5z"/>
<path d="M5249 6073 c-1 -5 -1 -11 0 -15 0 -5 -6 -8 -15 -8 -8 0 -13 -4 -10
-9 4 -5 0 -11 -6 -14 -7 -2 -1 -4 14 -3 24 1 28 5 28 29 0 24 -8 39 -11 20z"/>
<path d="M5300 6070 c0 -5 5 -10 10 -10 6 0 10 5 10 10 0 6 -4 10 -10 10 -5 0
-10 -4 -10 -10z"/>
<path d="M2136 6055 c-3 -8 -1 -15 4 -15 6 0 10 7 10 15 0 8 -2 15 -4 15 -2 0
-6 -7 -10 -15z"/>
<path d="M5270 6059 c0 -5 5 -7 10 -4 6 3 10 8 10 11 0 2 -4 4 -10 4 -5 0 -10
-5 -10 -11z"/>
<path d="M5566 6053 c-6 -14 -5 -15 5 -6 7 7 10 15 7 18 -3 3 -9 -2 -12 -12z"/>
<path d="M5760 6050 c-6 -11 -8 -20 -6 -20 3 0 10 9 16 20 6 11 8 20 6 20 -3
0 -10 -9 -16 -20z"/>
<path d="M5935 6060 c3 -6 1 -10 -6 -10 -7 0 -10 -3 -6 -6 3 -3 13 -2 22 4 16
8 16 9 1 15 -10 4 -15 3 -11 -3z"/>
<path d="M3952 6030 c7 -11 17 -20 22 -20 5 0 1 9 -9 20 -10 11 -20 20 -22 20
-2 0 2 -9 9 -20z"/>
<path d="M5835 6040 c3 -5 8 -10 11 -10 2 0 4 5 4 10 0 6 -5 10 -11 10 -5 0
-7 -4 -4 -10z"/>
<path d="M5990 6035 c-1 -5 -2 -14 -1 -18 1 -4 -13 -14 -31 -22 -18 -8 -27
-14 -20 -15 7 0 26 7 42 15 17 9 32 15 36 14 3 0 8 2 12 5 3 3 -2 6 -10 6 -9
0 -19 6 -21 13 -3 6 -6 8 -7 2z"/>
<path d="M2355 6020 c3 -5 8 -10 11 -10 2 0 4 5 4 10 0 6 -5 10 -11 10 -5 0
-7 -4 -4 -10z"/>
<path d="M2865 6020 c-3 -5 -2 -10 4 -10 5 0 13 5 16 10 3 6 2 10 -4 10 -5 0
-13 -4 -16 -10z"/>
<path d="M5725 6020 c-3 -5 -1 -10 4 -10 6 0 11 5 11 10 0 6 -2 10 -4 10 -3 0
-8 -4 -11 -10z"/>
<path d="M2150 5996 c0 -14 4 -27 8 -30 5 -3 6 8 4 25 -5 35 -12 38 -12 5z"/>
<path d="M4240 6014 c0 -6 7 -19 16 -30 14 -18 14 -18 3 6 -14 31 -19 36 -19
24z"/>
<path d="M5287 6004 c-3 -3 -3 -12 0 -20 3 -8 0 -14 -6 -14 -6 0 -8 -7 -5 -15
4 -8 1 -15 -6 -15 -6 0 -8 -5 -4 -11 7 -12 43 44 44 69 0 13 -12 16 -23 6z"/>
<path d="M5390 5998 c0 -9 7 -19 16 -22 15 -6 15 -4 3 11 -7 10 -15 20 -16 22
-2 2 -3 -3 -3 -11z"/>
<path d="M5680 6000 c0 -5 7 -7 15 -4 8 4 15 8 15 10 0 2 -7 4 -15 4 -8 0 -15
-4 -15 -10z"/>
<path d="M5842 5996 c7 -8 15 -12 17 -11 5 6 -10 25 -20 25 -5 0 -4 -6 3 -14z"/>
<path d="M2364 5989 c-3 -6 -1 -16 5 -22 8 -8 11 -5 11 11 0 24 -5 28 -16 11z"/>
<path d="M2880 5993 c5 -2 7 -10 3 -16 -12 -20 -12 -38 0 -34 16 5 15 50 -1
53 -7 1 -8 0 -2 -3z"/>
<path d="M3162 5986 c7 -8 15 -12 17 -11 5 6 -10 25 -20 25 -5 0 -4 -6 3 -14z"/>
<path d="M3984 5983 c2 -9 8 -19 14 -21 7 -2 10 -8 6 -13 -3 -5 2 -12 10 -15
9 -3 13 -10 10 -15 -3 -5 0 -9 6 -9 6 0 8 -4 5 -10 -3 -5 -1 -10 5 -10 7 0 9
8 5 21 -6 16 -4 20 6 13 8 -4 -2 11 -21 33 -39 45 -49 52 -46 26z"/>
<path d="M5438 5965 c4 -37 -7 -45 -28 -20 -7 8 -18 15 -24 15 -6 -1 -1 -9 11
-19 15 -13 19 -21 11 -29 -6 -6 10 -3 34 6 45 16 45 16 27 36 -11 11 -19 26
-19 33 0 7 -4 13 -8 13 -4 0 -6 -16 -4 -35z"/>
<path d="M5635 5990 c-3 -5 1 -10 9 -10 9 0 16 5 16 10 0 6 -4 10 -9 10 -6 0
-13 -4 -16 -10z"/>
<path d="M5769 5996 c-1 -3 -2 -9 -3 -13 -1 -5 -5 -14 -10 -21 -7 -11 -4 -11
13 0 12 7 21 16 21 20 0 9 -20 21 -21 14z"/>
<path d="M5876 5991 c-4 -7 -5 -15 -2 -18 9 -9 19 4 14 18 -4 11 -6 11 -12 0z"/>
<path d="M6040 5996 c0 -2 7 -7 16 -10 8 -3 12 -2 9 4 -6 10 -25 14 -25 6z"/>
<path d="M5110 5980 c0 -5 5 -10 11 -10 5 0 7 5 4 10 -3 6 -8 10 -11 10 -2 0
-4 -4 -4 -10z"/>
<path d="M5196 5982 c-3 -4 4 -9 15 -9 23 -2 25 3 4 10 -8 4 -16 3 -19 -1z"/>
<path d="M5997 5979 c7 -7 15 -10 18 -7 3 3 -2 9 -12 12 -14 6 -15 5 -6 -5z"/>
<path d="M2131 5964 c0 -11 3 -14 6 -6 3 7 2 16 -1 19 -3 4 -6 -2 -5 -13z"/>
<path d="M5150 5970 c0 -5 4 -10 9 -10 6 0 13 5 16 10 3 6 -1 10 -9 10 -9 0
-16 -4 -16 -10z"/>
<path d="M5488 5973 c7 -3 16 -2 19 1 4 3 -2 6 -13 5 -11 0 -14 -3 -6 -6z"/>
<path d="M3193 5955 c0 -8 4 -12 9 -9 5 3 6 10 3 15 -9 13 -12 11 -12 -6z"/>
<path d="M5630 5953 c8 -3 19 -11 23 -17 6 -7 7 -6 4 4 -2 8 -12 16 -23 17
-13 2 -15 1 -4 -4z"/>
<path d="M5150 5940 c-9 -6 -10 -10 -3 -10 6 0 15 5 18 10 8 12 4 12 -15 0z"/>
<path d="M5505 5940 c-3 -5 -1 -10 5 -10 6 0 8 -5 4 -12 -4 -7 -3 -8 4 -4 14
9 16 36 3 36 -6 0 -13 -4 -16 -10z"/>
<path d="M5890 5939 c0 -5 4 -8 9 -5 5 4 11 0 14 -6 2 -7 8 -9 13 -5 5 4 2 12
-6 17 -20 13 -30 12 -30 -1z"/>
<path d="M5783 5915 c31 -30 42 -32 25 -6 -7 11 -21 22 -32 25 -17 4 -16 1 7
-19z"/>
<path d="M5840 5925 c14 -17 30 -20 30 -4 0 5 -4 7 -10 4 -5 -3 -10 -1 -10 4
0 6 -5 11 -11 11 -8 0 -8 -5 1 -15z"/>
<path d="M5945 5930 c3 -5 8 -10 11 -10 2 0 4 5 4 10 0 6 -5 10 -11 10 -5 0
-7 -4 -4 -10z"/>
<path d="M4216 5922 c-3 -5 6 -17 20 -27 24 -15 25 -15 22 0 -1 9 -7 15 -12
15 -5 -1 -12 4 -16 10 -5 8 -10 8 -14 2z"/>
<path d="M5987 5914 c6 -15 23 -19 23 -5 0 5 -7 11 -14 14 -10 4 -13 1 -9 -9z"/>
<path d="M6034 5921 c4 -5 3 -11 -1 -14 -5 -2 -2 -2 4 -1 7 2 17 -5 22 -14 6
-9 10 -12 10 -7 0 13 -24 45 -33 45 -4 0 -5 -4 -2 -9z"/>
<path d="M2150 5908 c0 -9 5 -20 10 -23 13 -8 13 5 0 25 -8 13 -10 13 -10 -2z"/>
<path d="M5483 5904 c-3 -9 -13 -14 -24 -11 -12 3 -16 0 -12 -10 5 -12 1 -14
-13 -9 -16 5 -20 1 -19 -21 0 -17 -5 -27 -12 -26 -7 2 -10 -4 -7 -12 6 -14 -7
-20 -31 -16 -5 1 -2 -6 9 -16 13 -13 20 -15 23 -5 8 20 26 14 20 -8 -3 -11 -1
-20 4 -20 5 0 9 10 9 23 0 16 3 18 9 8 5 -7 15 -11 22 -8 9 3 2 10 -18 18 -39
16 -44 34 -8 25 29 -7 31 -3 9 19 -9 9 -13 19 -9 23 3 4 11 -1 16 -11 13 -23
29 -22 29 3 0 11 4 20 9 20 5 0 8 11 7 25 -1 29 -4 31 -13 9z"/>
<path d="M2895 5900 c-3 -5 -1 -10 4 -10 6 0 11 5 11 10 0 6 -2 10 -4 10 -3 0
-8 -4 -11 -10z"/>
<path d="M3258 5892 c9 -10 19 -17 21 -16 6 5 -20 34 -30 34 -5 0 -1 -8 9 -18z"/>
<path d="M5606 5883 c-6 -14 -5 -15 5 -6 7 7 10 15 7 18 -3 3 -9 -2 -12 -12z"/>
<path d="M3110 5886 c0 -2 8 -10 18 -17 15 -13 16 -12 3 4 -13 16 -21 21 -21
13z"/>
<path d="M5853 5880 c-27 -11 -29 -17 -6 -17 10 0 24 6 31 14 15 15 7 16 -25
3z"/>
<path d="M5365 5870 c3 -5 11 -10 16 -10 6 0 7 5 4 10 -3 6 -11 10 -16 10 -6
0 -7 -4 -4 -10z"/>
<path d="M5580 5865 c7 -8 17 -15 22 -15 5 0 3 7 -6 15 -8 8 -18 15 -22 15 -3
0 -1 -7 6 -15z"/>
<path d="M5780 5869 c0 -5 5 -7 10 -4 6 3 10 8 10 11 0 2 -4 4 -10 4 -5 0 -10
-5 -10 -11z"/>
<path d="M2170 5853 c0 -12 5 -25 10 -28 13 -8 13 15 0 35 -8 12 -10 11 -10
-7z"/>
<path d="M2393 5855 c0 -8 4 -15 9 -15 4 0 8 7 8 15 0 8 -4 15 -8 15 -5 0 -9
-7 -9 -15z"/>
<path d="M5665 5861 c-3 -6 -3 -11 2 -11 4 0 1 -5 -7 -10 -10 -7 -11 -10 -2
-10 7 0 15 7 19 15 7 19 -2 31 -12 16z"/>
<path d="M4263 5846 c0 -8 6 -12 14 -9 7 3 10 9 7 14 -8 14 -21 11 -21 -5z"/>
<path d="M4065 5830 c10 -11 19 -20 21 -20 1 0 0 9 -3 20 -3 11 -12 20 -21 20
-13 0 -12 -3 3 -20z"/>
<path d="M5557 5810 c3 -11 7 -20 9 -20 2 0 4 9 4 20 0 11 -4 20 -9 20 -5 0
-7 -9 -4 -20z"/>
<path d="M2405 5810 c-3 -5 -1 -10 4 -10 6 0 11 5 11 10 0 6 -2 10 -4 10 -3 0
-8 -4 -11 -10z"/>
<path d="M5260 5802 c0 -12 19 -26 26 -19 2 2 -2 10 -11 17 -9 8 -15 8 -15 2z"/>
<path d="M5588 5803 c7 -3 16 -2 19 1 4 3 -2 6 -13 5 -11 0 -14 -3 -6 -6z"/>
<path d="M4086 5785 c4 -8 11 -15 16 -15 6 0 5 6 -2 15 -7 8 -14 15 -16 15 -2
0 -1 -7 2 -15z"/>
<path d="M5710 5789 c0 -5 5 -7 10 -4 6 3 10 8 10 11 0 2 -4 4 -10 4 -5 0 -10
-5 -10 -11z"/>
<path d="M4284 5782 c-7 -4 -8 -15 -3 -27 7 -19 8 -19 8 3 1 15 5 21 13 16 7
-4 8 -3 4 4 -8 14 -8 14 -22 4z"/>
<path d="M2206 5765 c4 -8 8 -15 10 -15 2 0 4 7 4 15 0 8 -4 15 -10 15 -5 0
-7 -7 -4 -15z"/>
<path d="M2414 5760 c0 -11 4 -20 8 -20 4 0 8 9 8 20 0 11 -4 20 -8 20 -4 0
-8 -9 -8 -20z"/>
<path d="M2928 5752 c-4 -12 -2 -22 4 -22 6 0 8 -7 4 -15 -3 -8 -1 -15 4 -15
12 0 12 27 1 54 -7 19 -8 19 -13 -2z"/>
<path d="M5284 5759 c-3 -5 2 -9 11 -9 9 0 14 -4 10 -9 -3 -5 3 -16 13 -23 11
-7 20 -17 21 -23 1 -5 7 -11 14 -11 6 -1 16 -2 20 -3 5 0 1 -9 -9 -18 -11 -11
-13 -18 -5 -21 6 -2 11 -10 11 -17 0 -8 4 -16 8 -19 5 -3 8 12 7 32 -1 60 -80
154 -101 121z"/>
<path d="M4115 5720 c3 -5 11 -10 16 -10 6 0 7 5 4 10 -3 6 -11 10 -16 10 -6
0 -7 -4 -4 -10z"/>
<path d="M2410 5710 c0 -5 5 -10 10 -10 6 0 10 5 10 10 0 6 -4 10 -10 10 -5 0
-10 -4 -10 -10z"/>
<path d="M6016 5711 c-4 -5 3 -7 14 -4 23 6 26 13 6 13 -8 0 -17 -4 -20 -9z"/>
<path d="M3397 5686 c-7 -18 -45 -25 -74 -13 -12 5 -30 6 -40 2 -10 -5 -21 -7
-25 -7 -5 1 -8 -3 -8 -9 0 -6 -7 -8 -16 -5 -8 3 -12 2 -9 -4 3 -6 15 -10 26
-10 22 0 25 -13 5 -29 -11 -9 -15 -9 -19 1 -2 7 -8 9 -13 5 -5 -4 -2 -12 6
-17 8 -6 11 -10 5 -10 -5 0 -3 -5 5 -10 12 -7 10 -11 -10 -19 -14 -5 -19 -10
-12 -10 10 -1 13 -14 10 -51 -1 -28 0 -50 5 -50 4 0 7 9 7 20 0 11 5 20 11 20
5 0 7 -4 4 -10 -3 -5 0 -10 9 -10 8 0 16 -6 19 -12 4 -10 7 -10 18 0 11 10 10
12 -2 12 -8 0 -22 9 -32 20 -20 23 -21 30 -6 30 12 0 39 25 39 35 0 4 -6 5
-13 2 -18 -7 -42 32 -29 45 11 11 56 -8 48 -21 -3 -4 4 -12 15 -19 30 -19 25
12 -6 32 -29 19 -33 36 -7 37 13 0 12 3 -5 11 -13 6 -23 15 -23 20 0 13 12 10
47 -12 24 -14 31 -16 26 -4 -3 9 0 12 9 9 15 -6 56 31 46 40 -3 3 -8 -1 -11
-9z m-137 -136 c0 -5 -4 -10 -10 -10 -5 0 -10 5 -10 10 0 6 5 10 10 10 6 0 10
-4 10 -10z"/>
<path d="M4135 5690 c-3 -5 -1 -10 4 -10 6 0 11 5 11 10 0 6 -2 10 -4 10 -3 0
-8 -4 -11 -10z"/>
<path d="M5950 5680 c-9 -6 -10 -10 -3 -10 6 0 15 5 18 10 8 12 4 12 -15 0z"/>
<path d="M2241 5670 c0 -20 38 -99 39 -79 0 8 -9 33 -20 55 -10 21 -19 32 -19
24z"/>
<path d="M5605 5670 c-3 -5 -1 -10 4 -10 6 0 11 5 11 10 0 6 -2 10 -4 10 -3 0
-8 -4 -11 -10z"/>
<path d="M5916 5671 c-4 -7 -5 -15 -2 -18 9 -9 19 4 14 18 -4 11 -6 11 -12 0z"/>
<path d="M6095 5670 c3 -5 8 -10 11 -10 2 0 4 5 4 10 0 6 -5 10 -11 10 -5 0
-7 -4 -4 -10z"/>
<path d="M4145 5660 c-3 -5 -1 -10 4 -10 6 0 11 5 11 10 0 6 -2 10 -4 10 -3 0
-8 -4 -11 -10z"/>
<path d="M5804 5611 c0 -11 4 -17 8 -15 4 3 8 12 8 20 0 8 -4 14 -8 14 -4 0
-8 -9 -8 -19z"/>
<path d="M4165 5610 c3 -5 8 -10 11 -10 2 0 4 5 4 10 0 6 -5 10 -11 10 -5 0
-7 -4 -4 -10z"/>
<path d="M2960 5601 c0 -6 4 -13 10 -16 6 -3 7 1 4 9 -7 18 -14 21 -14 7z"/>
<path d="M5540 5590 c0 -5 5 -10 11 -10 5 0 7 5 4 10 -3 6 -8 10 -11 10 -2 0
-4 -4 -4 -10z"/>
<path d="M5370 5578 c0 -9 -6 -19 -12 -21 -10 -4 -10 -6 0 -6 7 -1 10 -5 7
-11 -3 -5 1 -10 9 -10 18 0 21 27 6 50 -8 13 -10 13 -10 -2z"/>
<path d="M5600 5580 c0 -5 7 -10 16 -10 8 0 12 5 9 10 -3 6 -10 10 -16 10 -5
0 -9 -4 -9 -10z"/>
<path d="M5540 5556 c0 -2 9 -6 20 -9 11 -3 20 -1 20 4 0 5 -9 9 -20 9 -11 0
-20 -2 -20 -4z"/>
<path d="M4153 5535 c0 -8 4 -15 9 -15 4 0 8 4 8 9 0 6 -4 12 -8 15 -5 3 -9
-1 -9 -9z"/>
<path d="M2290 5529 c0 -5 5 -7 10 -4 6 3 10 8 10 11 0 2 -4 4 -10 4 -5 0 -10
-5 -10 -11z"/>
<path d="M5355 5493 c0 -13 4 -23 9 -23 4 0 6 -6 3 -14 -3 -8 -1 -17 6 -20 9
-3 8 -8 -3 -15 -8 -6 -10 -11 -5 -11 6 0 3 -5 -5 -10 -10 -6 -11 -10 -2 -10 6
0 12 -6 12 -13 0 -14 43 -17 56 -4 5 4 1 5 -9 1 -13 -4 -17 -1 -17 15 0 12 5
21 11 21 5 0 7 -4 4 -10 -3 -5 -1 -10 4 -10 6 0 11 7 11 15 0 18 11 19 30 3
12 -11 12 -10 1 5 -9 11 -21 15 -32 12 -26 -8 -52 19 -44 45 3 11 11 20 17 20
6 0 5 -7 -3 -17 -13 -15 -12 -15 8 -2 26 15 24 19 -20 34 -30 10 -32 9 -32
-12z"/>
<path d="M3320 5470 c0 -5 5 -10 11 -10 5 0 7 5 4 10 -3 6 -8 10 -11 10 -2 0
-4 -4 -4 -10z"/>
<path d="M3355 5450 c3 -5 8 -10 11 -10 2 0 4 5 4 10 0 6 -5 10 -11 10 -5 0
-7 -4 -4 -10z"/>
<path d="M5550 5430 c0 -5 -8 -10 -17 -10 -14 0 -15 -2 -4 -12 10 -10 15 -10
18 -1 2 7 12 9 21 6 15 -6 15 -5 3 10 -15 19 -21 21 -21 7z"/>
<path d="M3227 5413 c3 -7 0 -19 -5 -26 -8 -9 -6 -16 8 -25 14 -9 20 -8 24 1
5 9 7 9 12 0 3 -7 10 -13 15 -13 6 0 3 10 -5 22 -9 12 -16 29 -16 38 0 9 -8
16 -19 16 -11 0 -17 -5 -14 -13z"/>
<path d="M3273 5411 c0 -9 9 -18 19 -18 22 -2 22 -1 -1 19 -18 16 -20 15 -18
-1z"/>
<path d="M5790 5416 c0 -2 8 -10 18 -17 15 -13 16 -12 3 4 -13 16 -21 21 -21
13z"/>
<path d="M5566 5393 c-3 -4 -6 -11 -6 -17 0 -6 5 -4 10 4 6 10 10 11 10 3 0
-7 5 -13 10 -13 6 0 10 4 10 9 0 11 -26 22 -34 14z"/>
<path d="M3020 5385 c0 -5 5 -17 10 -25 5 -8 10 -10 10 -5 0 6 -5 17 -10 25
-5 8 -10 11 -10 5z"/>
<path d="M2355 5370 c-3 -5 -1 -10 4 -10 6 0 11 5 11 10 0 6 -2 10 -4 10 -3 0
-8 -4 -11 -10z"/>
<path d="M5510 5366 c0 -2 7 -9 15 -16 13 -11 14 -10 9 4 -5 14 -24 23 -24 12z"/>
<path d="M5484 5349 c-4 -7 -2 -15 4 -17 18 -6 14 -30 -5 -35 -11 -3 -8 -5 9
-6 26 -1 27 0 16 32 -14 40 -14 41 -24 26z"/>
<path d="M2360 5346 c0 -2 8 -10 18 -17 15 -13 16 -12 3 4 -13 16 -21 21 -21
13z"/>
<path d="M5416 5335 c-12 -13 -20 -14 -30 -6 -11 9 -15 6 -18 -14 -3 -14 -1
-25 3 -25 5 0 9 5 9 10 0 6 5 10 11 10 5 0 7 -4 4 -10 -3 -6 5 -10 18 -10 27
0 42 23 29 47 -8 13 -11 13 -26 -2z"/>
<path d="M3220 5310 c0 -5 5 -10 11 -10 5 0 7 5 4 10 -3 6 -8 10 -11 10 -2 0
-4 -4 -4 -10z"/>
<path d="M5665 5290 c3 -5 8 -10 11 -10 2 0 4 5 4 10 0 6 -5 10 -11 10 -5 0
-7 -4 -4 -10z"/>
<path d="M3060 5281 c0 -6 4 -13 10 -16 6 -3 7 1 4 9 -7 18 -14 21 -14 7z"/>
<path d="M3210 5247 c0 -10 8 -17 18 -17 9 0 13 4 7 8 -5 4 -13 11 -17 16 -5
5 -8 2 -8 -7z"/>
<path d="M4673 5241 c-28 -23 -28 -27 -4 -27 11 0 17 4 14 9 -2 4 1 14 7 22
17 20 10 18 -17 -4z"/>
<path d="M5597 5248 c7 -8 9 -19 5 -23 -6 -7 7 -4 46 12 7 3 12 -2 12 -12 0
-11 -5 -15 -16 -11 -8 3 -12 2 -9 -4 3 -6 13 -10 21 -10 8 0 13 -5 12 -12 -2
-7 8 -13 22 -14 l24 -1 -22 17 c-12 10 -22 24 -22 32 0 16 -19 38 -33 38 -4 0
-5 -4 -2 -10 8 -13 -1 -13 -28 2 -19 10 -20 9 -10 -4z"/>
<path d="M3136 5225 c4 -8 8 -15 10 -15 2 0 4 7 4 15 0 8 -4 15 -10 15 -5 0
-7 -7 -4 -15z"/>
<path d="M5338 5233 c7 -3 16 -2 19 1 4 3 -2 6 -13 5 -11 0 -14 -3 -6 -6z"/>
<path d="M5516 5223 c-6 -14 -5 -15 5 -6 7 7 10 15 7 18 -3 3 -9 -2 -12 -12z"/>
<path d="M5568 5233 c7 -3 16 -2 19 1 4 3 -2 6 -13 5 -11 0 -14 -3 -6 -6z"/>
<path d="M3186 5211 c-3 -5 1 -11 9 -15 8 -3 15 -1 15 4 0 13 -18 22 -24 11z"/>
<path d="M3300 5216 c0 -2 9 -6 20 -9 11 -3 18 -1 14 4 -5 9 -34 13 -34 5z"/>
<path d="M5327 5200 c3 -12 2 -25 -3 -29 -5 -3 -6 -24 -3 -46 3 -22 7 -30 8
-17 0 12 6 22 12 22 13 0 6 83 -9 88 -6 2 -8 -5 -5 -18z"/>
<path d="M3235 5201 c3 -5 -1 -12 -7 -15 -7 -3 -4 -4 7 -3 12 1 20 -4 20 -13
0 -9 -9 -15 -22 -15 -11 0 -24 -3 -28 -6 -3 -4 12 -6 34 -5 23 0 41 2 41 3 0
13 -26 53 -37 57 -8 3 -12 2 -8 -3z"/>
<path d="M5595 5200 c3 -5 1 -10 -5 -10 -6 0 -9 -4 -6 -9 3 -5 -1 -12 -10 -15
-8 -3 -13 -10 -10 -15 4 -5 0 -12 -6 -14 -8 -4 -7 -6 4 -6 9 -1 23 -4 32 -7
11 -4 16 -1 16 11 0 10 -5 13 -12 9 -8 -5 -9 -2 -5 10 4 10 7 20 7 22 0 3 5 2
11 -2 8 -4 8 0 0 15 -7 11 -14 21 -17 21 -3 0 -2 -4 1 -10z"/>
<path d="M6135 5165 c37 -30 45 -31 38 -6 -3 11 -11 17 -18 15 -7 -3 -16 -1
-20 5 -3 6 -12 11 -18 11 -7 0 2 -11 18 -25z"/>
<path d="M3185 5170 c-3 -5 -1 -10 4 -10 6 0 11 5 11 10 0 6 -2 10 -4 10 -3 0
-8 -4 -11 -10z"/>
<path d="M5703 5134 c16 -8 31 -13 35 -10 8 8 1 12 -33 20 l-30 6 28 -16z"/>
<path d="M3233 5106 c3 -8 1 -17 -6 -19 -7 -3 1 -10 16 -16 16 -6 33 -9 38 -5
15 9 10 34 -7 34 -8 0 -12 -4 -9 -10 3 -5 1 -10 -6 -10 -6 0 -9 8 -6 20 3 13
0 20 -10 20 -9 0 -13 -6 -10 -14z"/>
<path d="M5542 5108 c2 -7 8 -16 13 -20 7 -5 7 -10 0 -15 -19 -15 -14 -43 7
-43 16 0 18 3 9 14 -11 13 -5 46 8 46 4 0 12 -5 18 -11 8 -8 13 -7 18 2 5 8 4
10 -3 5 -7 -4 -12 -3 -12 2 0 5 -8 12 -17 16 -10 3 -24 9 -31 12 -7 3 -11 0
-10 -8z"/>
<path d="M5706 5107 c3 -10 9 -15 12 -12 3 3 0 11 -7 18 -10 9 -11 8 -5 -6z"/>
<path d="M3110 5101 c0 -6 4 -13 10 -16 6 -3 7 1 4 9 -7 18 -14 21 -14 7z"/>
<path d="M5744 5098 c4 -13 -2 -20 -20 -24 -19 -5 -22 -9 -12 -15 7 -5 20 -6
28 -4 8 2 22 0 30 -5 13 -9 13 -11 0 -20 -8 -5 -10 -10 -5 -10 6 0 3 -5 -5
-10 -13 -8 -13 -10 2 -10 22 0 35 40 17 54 -8 6 -20 22 -27 36 -7 14 -10 17
-8 8z"/>
<path d="M5635 5079 c-4 -6 -5 -12 -2 -15 2 -3 7 2 10 11 7 17 1 20 -8 4z"/>
<path d="M5654 5062 c3 -5 0 -13 -6 -15 -8 -3 -6 -6 5 -6 19 -1 23 14 5 25 -6
4 -8 3 -4 -4z"/>
<path d="M3164 5033 c9 -18 18 -33 20 -33 9 0 -8 41 -22 52 -13 11 -12 8 2
-19z"/>
<path d="M4235 5050 c-3 -5 -1 -10 4 -10 6 0 11 5 11 10 0 6 -2 10 -4 10 -3 0
-8 -4 -11 -10z"/>
<path d="M5298 5053 c7 -3 16 -2 19 1 4 3 -2 6 -13 5 -11 0 -14 -3 -6 -6z"/>
<path d="M3715 5010 c-3 -6 1 -7 9 -4 18 7 21 14 7 14 -6 0 -13 -4 -16 -10z"/>
<path d="M5585 5010 c-4 -6 -4 -14 -1 -17 3 -4 6 0 6 7 0 9 5 7 15 -6 8 -10
15 -14 15 -8 0 19 -27 37 -35 24z"/>
<path d="M3796 4998 c3 -4 9 -8 15 -8 5 0 9 4 9 8 0 5 -7 9 -15 9 -8 0 -12 -4
-9 -9z"/>
<path d="M4540 4990 c-9 -6 -10 -10 -3 -10 6 0 15 5 18 10 8 12 4 12 -15 0z"/>
<path d="M5799 4987 c6 -8 7 -18 3 -22 -4 -5 -1 -5 6 -1 10 6 10 11 1 22 -6 8
-14 14 -16 14 -3 0 0 -6 6 -13z"/>
<path d="M5297 4970 c3 -12 0 -20 -6 -20 -7 0 -9 -4 -6 -10 3 -5 2 -10 -3 -10
-5 0 -7 -13 -4 -30 5 -37 22 -29 22 10 0 16 4 40 10 54 7 20 6 26 -4 26 -9 0
-12 -7 -9 -20z"/>
<path d="M3200 4971 c0 -6 4 -13 10 -16 6 -3 7 1 4 9 -7 18 -14 21 -14 7z"/>
<path d="M3786 4957 c3 -10 9 -15 12 -12 3 3 0 11 -7 18 -10 9 -11 8 -5 -6z"/>
<path d="M5514 4940 c0 -14 7 -20 21 -20 12 0 26 -5 33 -12 9 -9 12 -7 12 11
0 20 4 22 23 16 12 -3 33 -9 47 -11 19 -4 17 -1 -10 12 -43 21 -73 27 -65 14
3 -5 2 -10 -4 -10 -5 0 -16 -3 -25 -6 -11 -4 -16 -1 -16 10 0 9 -4 16 -8 16
-4 0 -8 -9 -8 -20z"/>
<path d="M5800 4947 c0 -2 10 -15 22 -28 16 -18 19 -19 15 -6 -4 10 -7 23 -7
28 0 5 -7 9 -15 9 -8 0 -15 -2 -15 -3z"/>
<path d="M3305 4930 c-3 -5 -1 -10 4 -10 6 0 11 5 11 10 0 6 -2 10 -4 10 -3 0
-8 -4 -11 -10z"/>
<path d="M5690 4930 c-11 -7 -7 -10 19 -10 25 0 32 -4 28 -15 -4 -8 -2 -17 2
-20 5 -2 11 6 13 20 4 16 1 25 -8 25 -7 0 -18 2 -26 5 -7 3 -20 0 -28 -5z"/>
<path d="M3615 4920 c6 -10 4 -12 -8 -7 -10 3 -17 2 -17 -3 0 -13 27 -13 35
-1 3 5 0 13 -6 17 -8 5 -9 3 -4 -6z"/>
<path d="M5597 4909 c7 -7 15 -10 18 -7 3 3 -2 9 -12 12 -14 6 -15 5 -6 -5z"/>
<path d="M5854 4887 c2 -13 6 -30 11 -37 4 -7 2 -16 -6 -22 -10 -6 -7 -7 9 -3
20 6 23 4 20 -12 -2 -10 -11 -17 -21 -15 -9 2 -17 -3 -17 -11 0 -24 13 -27 27
-7 8 11 18 18 23 15 4 -3 6 5 2 17 -3 13 -11 27 -19 31 -7 4 -13 19 -13 32 0
13 -4 26 -9 29 -5 4 -8 -4 -7 -17z"/>
<path d="M5507 4879 c4 -13 8 -18 11 -10 2 7 -1 18 -6 23 -8 8 -9 4 -5 -13z"/>
<path d="M5706 4883 c-6 -14 -5 -15 5 -6 7 7 10 15 7 18 -3 3 -9 -2 -12 -12z"/>
<path d="M5770 4870 c0 -5 5 -10 11 -10 5 0 7 5 4 10 -3 6 -8 10 -11 10 -2 0
-4 -4 -4 -10z"/>
<path d="M5730 4860 c0 -5 5 -10 11 -10 5 0 7 5 4 10 -3 6 -8 10 -11 10 -2 0
-4 -4 -4 -10z"/>
<path d="M5268 4835 c2 -14 -2 -33 -9 -42 -12 -14 -12 -16 0 -9 8 5 17 3 22
-5 5 -9 7 1 4 26 -2 22 -4 43 -4 48 -1 4 -5 7 -10 7 -4 0 -6 -11 -3 -25z"/>
<path d="M5665 4850 c-3 -5 -1 -10 4 -10 6 0 11 5 11 10 0 6 -2 10 -4 10 -3 0
-8 -4 -11 -10z"/>
<path d="M5526 4835 c4 -8 1 -15 -5 -15 -6 0 -11 4 -11 9 0 16 -55 7 -56 -9
-1 -23 7 -32 19 -22 7 6 31 13 54 17 38 6 83 35 54 35 -6 0 -11 -4 -11 -10 0
-5 -7 -10 -15 -10 -8 0 -15 5 -15 10 0 6 -4 10 -10 10 -5 0 -7 -7 -4 -15z"/>
<path d="M5810 4840 c0 -5 5 -10 10 -10 6 0 10 5 10 10 0 6 -4 10 -10 10 -5 0
-10 -4 -10 -10z"/>
<path d="M3245 4810 c9 -16 18 -30 21 -30 2 0 -2 14 -11 30 -9 17 -18 30 -21
30 -2 0 2 -13 11 -30z"/>
<path d="M5685 4829 c-11 -16 -1 -19 13 -3 7 8 8 14 3 14 -5 0 -13 -5 -16 -11z"/>
<path d="M3286 4817 c3 -10 9 -15 12 -12 3 3 0 11 -7 18 -10 9 -11 8 -5 -6z"/>
<path d="M4428 4823 c7 -3 16 -2 19 1 4 3 -2 6 -13 5 -11 0 -14 -3 -6 -6z"/>
<path d="M4547 4809 c7 -7 15 -10 18 -7 3 3 -2 9 -12 12 -14 6 -15 5 -6 -5z"/>
<path d="M5710 4801 c0 -6 -18 -14 -40 -17 -22 -4 -40 -11 -40 -16 0 -6 -7 -7
-16 -4 -13 5 -14 4 -6 -7 7 -8 9 -17 5 -20 -3 -4 -1 -7 5 -7 7 0 12 7 12 15 0
9 9 15 25 15 14 0 25 5 25 10 0 6 11 10 25 10 25 0 33 14 15 25 -5 3 -10 1
-10 -4z"/>
<path d="M5776 4796 c3 -8 12 -17 20 -20 12 -4 12 -2 4 14 -12 23 -32 27 -24
6z"/>
<path d="M3475 4790 c-3 -5 -1 -10 4 -10 6 0 11 5 11 10 0 6 -2 10 -4 10 -3 0
-8 -4 -11 -10z"/>
<path d="M5590 4796 c0 -2 7 -7 16 -10 8 -3 12 -2 9 4 -6 10 -25 14 -25 6z"/>
<path d="M5484 4779 c-3 -5 -2 -9 3 -9 4 0 1 -5 -7 -10 -8 -5 -24 -7 -35 -4
-18 4 -18 4 -2 -6 18 -12 57 -4 68 13 4 5 15 7 25 2 18 -7 18 -8 -1 -15 -18
-8 -17 -9 8 -9 18 -1 27 4 27 14 0 8 -7 15 -15 15 -8 0 -15 3 -15 8 0 10 -49
12 -56 1z"/>
<path d="M4520 4769 c0 -5 5 -7 10 -4 6 3 10 8 10 11 0 2 -4 4 -10 4 -5 0 -10
-5 -10 -11z"/>
<path d="M5896 4772 c-3 -5 1 -9 9 -9 8 0 12 4 9 9 -3 4 -7 8 -9 8 -2 0 -6 -4
-9 -8z"/>
<path d="M3292 4715 c16 -30 31 -55 34 -55 2 0 -8 25 -23 55 -15 30 -30 55
-34 55 -4 0 6 -25 23 -55z"/>
<path d="M5727 4764 c-3 -3 -3 -12 -1 -19 4 -10 -6 -11 -43 -8 -26 3 -45 3
-42 -1 3 -3 37 -9 75 -11 38 -3 81 -8 97 -11 30 -6 34 0 14 21 -9 8 -19 10
-28 4 -25 -16 -49 -10 -49 11 0 19 -11 26 -23 14z"/>
<path d="M5940 4761 c0 -5 7 -12 16 -15 14 -5 15 -4 4 9 -14 17 -20 19 -20 6z"/>
<path d="M5256 4745 c-3 -9 0 -15 9 -15 8 0 15 7 15 15 0 8 -4 15 -9 15 -5 0
-11 -7 -15 -15z"/>
<path d="M4280 4710 c0 -5 5 -10 10 -10 6 0 10 5 10 10 0 6 -4 10 -10 10 -5 0
-10 -4 -10 -10z"/>
<path d="M5910 4710 c-13 -8 -12 -10 3 -10 9 0 17 5 17 10 0 12 -1 12 -20 0z"/>
<path d="M5956 4705 c22 -16 44 -19 44 -6 0 6 -5 13 -12 17 -7 4 -8 3 -4 -4 4
-7 2 -12 -3 -12 -6 0 -11 5 -11 10 0 6 -8 10 -17 10 -15 0 -14 -2 3 -15z"/>
<path d="M5553 4695 c0 -11 32 -14 42 -3 9 8 45 -3 45 -13 0 -5 -8 -9 -17 -9
-12 0 -18 -8 -18 -25 0 -14 6 -25 13 -25 6 0 12 -4 12 -10 0 -5 -6 -10 -12
-10 -8 0 -13 -14 -13 -35 0 -34 0 -34 16 -14 14 18 17 19 28 5 14 -17 31 -13
31 7 0 7 -4 6 -10 -3 -8 -12 -10 -11 -10 7 0 12 7 26 15 31 14 7 13 11 -4 26
-11 10 -27 16 -36 13 -21 -9 -19 13 3 29 23 18 35 17 28 -2 -3 -8 -2 -12 4 -9
18 11 10 35 -15 45 -34 13 -102 10 -102 -5z m117 -86 c0 -5 -7 -9 -15 -9 -8 0
-15 7 -15 15 0 9 6 12 15 9 8 -4 15 -10 15 -15z"/>
<path d="M3360 4680 c6 -11 13 -20 16 -20 2 0 0 9 -6 20 -6 11 -13 20 -16 20
-2 0 0 -9 6 -20z"/>
<path d="M5185 4689 c4 -6 1 -9 -6 -7 -8 1 -16 -2 -18 -7 -2 -6 -26 -22 -52
-38 -46 -26 -63 -47 -38 -47 5 0 7 -5 3 -11 -3 -6 -9 -7 -13 -2 -12 17 -85 -2
-74 -20 4 -7 0 -8 -12 -3 -14 5 -16 4 -7 -7 9 -11 2 -16 -37 -27 -31 -8 -47
-18 -45 -25 6 -15 -12 -23 -43 -20 -12 1 -20 -2 -17 -7 3 -4 -3 -8 -13 -8 -15
0 -15 -2 -4 -9 12 -8 11 -13 -10 -29 -17 -14 -26 -17 -31 -9 -5 7 -8 8 -8 2 0
-6 5 -16 12 -23 9 -9 8 -12 -5 -12 -9 0 -17 5 -17 10 0 6 -8 10 -19 10 -12 0
-18 -7 -17 -17 0 -11 -7 -19 -21 -21 -14 -2 -20 -8 -16 -18 3 -8 0 -14 -6 -14
-6 0 -11 4 -11 9 0 15 -33 22 -44 10 -8 -9 -7 -10 6 -6 22 8 35 -12 17 -24 -9
-7 -5 -7 14 -3 17 4 27 2 27 -5 0 -6 -10 -11 -22 -11 -17 0 -19 -3 -9 -9 7 -5
10 -14 7 -20 -4 -6 4 -16 18 -22 14 -7 23 -15 21 -19 -7 -12 -59 -9 -67 4 -11
16 -10 26 3 26 5 0 7 -4 4 -10 -3 -5 -1 -10 4 -10 15 0 14 13 -5 36 -8 10 -13
14 -10 8 3 -7 -1 -15 -10 -18 -13 -5 -15 -2 -11 13 3 13 1 18 -9 14 -7 -2 -10
-11 -7 -19 4 -11 -2 -14 -31 -10 -20 2 -36 1 -36 -3 0 -4 -16 -13 -37 -20 -31
-12 -34 -15 -18 -23 12 -7 20 -7 25 2 6 10 15 6 35 -14 15 -15 24 -30 21 -33
-3 -4 -16 5 -27 18 -15 16 -23 20 -26 12 -7 -19 -40 -16 -51 4 -6 9 -19 17
-31 18 -28 2 -27 0 14 -25 38 -23 45 -44 19 -54 -22 -9 -32 3 -14 15 11 8 10
9 -7 4 -24 -7 -33 9 -10 18 7 4 6 6 -4 6 -20 1 -33 -26 -16 -32 9 -3 8 -8 -2
-21 -12 -14 -12 -16 4 -10 13 5 16 4 11 -4 -4 -7 -2 -12 3 -12 6 0 11 -9 11
-21 0 -16 -4 -19 -22 -14 -21 6 -22 5 -6 -8 10 -8 16 -16 13 -19 -2 -2 16 -24
41 -49 31 -30 44 -38 40 -24 -5 16 -1 20 19 21 29 2 33 -11 8 -20 -15 -6 -15
-8 -3 -16 8 -5 11 -12 7 -16 -8 -8 11 -34 24 -34 5 0 9 11 9 25 0 30 16 31 49
4 20 -17 22 -22 11 -29 -8 -5 -11 -12 -6 -17 4 -4 12 0 17 10 6 9 15 15 20 11
6 -3 13 4 16 15 5 20 6 20 19 4 13 -17 13 -17 14 0 0 9 -4 17 -10 17 -5 0 -10
6 -10 14 0 8 -4 17 -9 20 -5 4 -7 -3 -4 -15 5 -18 3 -20 -17 -14 -15 5 -20 4
-16 -4 4 -6 2 -11 -3 -11 -6 0 -11 7 -11 15 0 8 -4 15 -10 15 -5 0 -10 5 -10
10 0 6 7 10 15 10 9 0 12 6 8 15 -4 13 1 15 28 12 19 -2 44 -9 56 -16 19 -10
22 -9 17 4 -4 8 -12 15 -20 15 -17 0 -18 22 -2 38 9 9 9 12 0 12 -20 0 -13 26
12 45 22 16 22 19 9 46 -8 16 -19 26 -25 23 -10 -7 -28 13 -28 31 0 6 5 3 10
-5 8 -11 12 -12 18 -3 5 8 13 9 22 3 8 -5 11 -12 7 -16 -8 -8 11 -34 24 -34 5
0 9 7 9 15 0 8 -4 15 -10 15 -5 0 -10 5 -10 10 0 6 9 10 21 10 15 0 19 -5 15
-15 -3 -9 0 -15 8 -15 8 0 16 -10 20 -22 5 -23 6 -22 34 9 32 35 46 63 32 63
-6 0 -10 5 -10 10 0 6 7 10 15 10 8 0 15 5 15 10 0 6 5 10 10 10 6 0 10 -7 10
-15 0 -8 5 -15 11 -15 6 0 9 -7 5 -15 -3 -8 -1 -15 4 -15 6 0 10 7 10 16 0 13
3 14 13 5 10 -8 17 -7 25 1 6 6 15 8 19 3 5 -4 2 -10 -4 -12 -7 -3 -13 -9 -13
-14 0 -4 7 -6 17 -2 13 5 15 2 11 -15 -4 -12 -2 -22 3 -22 4 0 6 -8 3 -17 -5
-17 -5 -17 6 -1 6 10 17 15 27 11 14 -6 14 -8 -3 -20 -11 -8 -13 -13 -5 -13 8
0 11 -6 7 -15 -7 -19 1 -19 19 -1 11 11 11 18 -1 41 -8 15 -14 35 -14 44 0 14
-2 14 -11 1 -9 -12 -10 -11 -6 8 3 12 2 22 -3 22 -4 0 -8 18 -8 41 -1 38 0 40
17 25 12 -11 28 -14 56 -9 31 5 37 4 29 -8 -10 -16 -14 -39 -7 -39 13 0 33 32
33 53 0 13 13 96 30 183 32 169 37 224 19 224 -5 0 -7 -5 -4 -11z m5 -60 c0
-16 -29 -41 -40 -34 -15 9 -12 25 5 25 8 0 15 5 15 10 0 6 5 10 10 10 6 0 10
-5 10 -11z m-175 -89 c-3 -5 1 -10 10 -10 9 0 13 -4 10 -10 -3 -5 -1 -10 5
-10 6 0 8 -4 5 -10 -3 -5 -1 -10 5 -10 6 0 8 -5 5 -10 -3 -6 -17 3 -31 19 -25
31 -31 51 -13 51 5 0 7 -4 4 -10z m125 -14 c0 -3 -4 -8 -10 -11 -5 -3 -10 -1
-10 4 0 6 5 11 10 11 6 0 10 -2 10 -4z m-183 -47 c58 -28 57 -44 -2 -40 -14 1
-10 -4 13 -15 22 -12 32 -24 32 -40 0 -13 -4 -24 -10 -24 -5 0 -10 8 -10 18 0
13 -2 14 -9 3 -5 -7 -14 -10 -20 -7 -6 4 -11 0 -11 -8 0 -9 -7 -16 -15 -16 -8
0 -15 4 -15 9 0 5 -3 16 -6 24 -4 11 2 17 18 20 21 4 20 4 -4 6 -31 1 -39 21
-9 21 10 0 22 7 25 16 3 8 10 12 16 9 5 -3 10 -3 10 0 0 3 -13 11 -30 16 -16
6 -30 15 -30 20 0 13 9 11 57 -12z m83 -28 c0 -6 -4 -13 -10 -16 -5 -3 -10 1
-10 9 0 9 5 16 10 16 6 0 10 -4 10 -9z m70 -5 c0 -8 -4 -18 -10 -21 -5 -3 -10
3 -10 14 0 12 5 21 10 21 6 0 10 -6 10 -14z m-30 0 c0 -3 -4 -8 -10 -11 -5 -3
-10 -1 -10 4 0 6 5 11 10 11 6 0 10 -2 10 -4z m-240 -36 c0 -5 -7 -10 -15 -10
-8 0 -15 5 -15 10 0 6 7 10 15 10 8 0 15 -4 15 -10z m217 -8 c-23 -25 -21 -31
6 -25 20 4 21 3 5 -10 -10 -8 -15 -16 -12 -19 3 -4 1 -9 -5 -13 -6 -3 -11 1
-11 10 0 8 -7 18 -15 21 -31 12 -5 53 34 54 11 0 11 -4 -2 -18z m-182 -12 c-3
-5 1 -10 9 -10 19 0 21 -16 4 -23 -8 -3 -6 -6 5 -6 9 -1 17 -5 17 -11 0 -12
-20 -13 -36 -2 -14 8 -15 62 -2 62 5 0 6 -4 3 -10z m235 -9 c0 -6 -4 -13 -10
-16 -5 -3 -10 1 -10 9 0 9 5 16 10 16 6 0 10 -4 10 -9z m-380 -31 c0 -5 -4
-10 -10 -10 -5 0 -10 5 -10 10 0 6 5 10 10 10 6 0 10 -4 10 -10z m250 -10 c0
-5 -4 -10 -10 -10 -5 0 -7 -7 -3 -16 3 -9 0 -20 -8 -25 -10 -6 -10 -9 -1 -9
13 0 17 -36 4 -44 -14 -8 -36 54 -23 67 6 6 11 19 11 29 0 10 7 18 15 18 8 0
15 -4 15 -10z m134 -11 c-3 -5 0 -9 6 -9 6 0 8 -5 5 -10 -4 -6 -12 -5 -21 4
-18 19 -18 37 1 30 8 -4 12 -10 9 -15z m-344 -9 c0 -5 -4 -10 -10 -10 -5 0
-10 5 -10 10 0 6 5 10 10 10 6 0 10 -4 10 -10z m90 0 c0 -5 -7 -10 -15 -10 -8
0 -15 5 -15 10 0 6 7 10 15 10 8 0 15 -4 15 -10z m140 0 c0 -5 -4 -10 -10 -10
-5 0 -10 5 -10 10 0 6 5 10 10 10 6 0 10 -4 10 -10z m80 -4 c0 -16 -18 -31
-27 -22 -8 8 5 36 17 36 5 0 10 -6 10 -14z m-150 -6 c0 -5 -7 -10 -15 -10 -8
0 -15 5 -15 10 0 6 7 10 15 10 8 0 15 -4 15 -10z m-200 -25 c0 -14 -4 -25 -10
-25 -5 0 -10 11 -10 25 0 14 5 25 10 25 6 0 10 -11 10 -25z m54 -7 c12 -11 12
-16 -1 -30 -10 -11 -12 -18 -5 -18 7 0 12 5 12 10 0 6 5 10 10 10 6 0 10 -7
10 -15 0 -8 -8 -15 -17 -15 -15 0 -16 -2 -3 -10 8 -5 11 -13 6 -17 -5 -4 -10
-3 -13 2 -11 31 -21 37 -42 26 -27 -15 -28 0 -1 17 11 7 20 21 20 32 0 23 6
25 24 8z m-184 -38 c0 -5 -4 -10 -10 -10 -5 0 -10 5 -10 10 0 6 5 10 10 10 6
0 10 -4 10 -10z m240 -30 c0 -5 -4 -10 -10 -10 -5 0 -10 5 -10 10 0 6 5 10 10
10 6 0 10 -4 10 -10z m-260 -20 c0 -5 -4 -10 -10 -10 -5 0 -10 5 -10 10 0 6 5
10 10 10 6 0 10 -4 10 -10z m10 -30 c0 -5 -7 -10 -15 -10 -8 0 -15 5 -15 10 0
6 7 10 15 10 8 0 15 -4 15 -10z m-50 -10 c0 -5 -4 -10 -10 -10 -5 0 -10 5 -10
10 0 6 5 10 10 10 6 0 10 -4 10 -10z m160 1 c0 -5 -7 -11 -15 -15 -9 -3 -15 0
-15 9 0 8 7 15 15 15 8 0 15 -4 15 -9z m-70 -21 c0 -5 -4 -10 -10 -10 -5 0
-10 5 -10 10 0 6 5 10 10 10 6 0 10 -4 10 -10z m-110 -10 c13 -9 13 -11 0 -19
-10 -7 -17 -6 -22 2 -17 26 -5 35 22 17z m120 -10 c12 0 18 -4 15 -10 -3 -5
-1 -10 4 -10 6 0 11 -9 11 -21 0 -17 -4 -19 -22 -13 -13 3 -25 11 -27 16 -2 6
-12 18 -22 26 -25 21 -24 36 0 22 11 -5 29 -10 41 -10z m-130 -40 c0 -4 -10
-12 -22 -18 -13 -6 -17 -11 -10 -11 14 -1 17 -21 3 -21 -16 0 -21 30 -9 49 11
18 38 18 38 1z m-50 0 c0 -5 -5 -10 -11 -10 -5 0 -7 -4 -4 -10 3 -5 1 -10 -4
-10 -13 0 -13 3 -5 24 7 18 24 22 24 6z m110 -10 c0 -5 -4 -10 -10 -10 -5 0
-10 5 -10 10 0 6 5 10 10 10 6 0 10 -4 10 -10z m-40 -30 c0 -11 -4 -20 -10
-20 -5 0 -10 9 -10 20 0 11 5 20 10 20 6 0 10 -9 10 -20z m90 10 c0 -5 -7 -10
-15 -10 -8 0 -15 5 -15 10 0 6 7 10 15 10 8 0 15 -4 15 -10z m40 -4 c0 -3 -4
-8 -10 -11 -5 -3 -10 -1 -10 4 0 6 5 11 10 11 6 0 10 -2 10 -4z m-80 -53 c0
-20 -24 -11 -28 10 -2 12 1 15 12 11 9 -3 16 -13 16 -21z"/>
<path d="M4290 4671 c0 -6 4 -13 10 -16 6 -3 7 1 4 9 -7 18 -14 21 -14 7z"/>
<path d="M5428 4673 c6 -3 10 -8 8 -12 -3 -4 8 -5 25 -3 41 6 36 18 -8 19 -21
0 -32 -2 -25 -4z"/>
<path d="M3597 4659 c7 -7 15 -10 18 -7 3 3 -2 9 -12 12 -14 6 -15 5 -6 -5z"/>
<path d="M5230 4651 c-6 -12 -7 -21 -1 -21 10 0 24 30 17 37 -2 3 -9 -5 -16
-16z"/>
<path d="M5755 4660 c3 -5 8 -10 11 -10 2 0 4 5 4 10 0 6 -5 10 -11 10 -5 0
-7 -4 -4 -10z"/>
<path d="M3034 4632 c1 -18 24 -38 33 -28 4 3 1 6 -5 6 -7 0 -12 6 -12 14 0 8
-4 17 -9 20 -5 3 -8 -2 -7 -12z"/>
<path d="M3381 4645 c0 -5 8 -26 19 -45 11 -19 19 -30 19 -25 0 6 -8 26 -19
45 -11 19 -19 31 -19 25z"/>
<path d="M5561 4617 c-13 -21 -12 -21 5 -5 10 10 16 20 13 22 -3 3 -11 -5 -18
-17z"/>
<path d="M3341 4625 c0 -5 8 -26 19 -45 11 -19 19 -30 19 -25 0 6 -8 26 -19
45 -11 19 -19 31 -19 25z"/>
<path d="M5450 4620 c19 -13 30 -13 30 0 0 6 -10 10 -22 10 -19 0 -20 -2 -8
-10z"/>
<path d="M5710 4620 c0 -5 5 -10 10 -10 6 0 10 5 10 10 0 6 -4 10 -10 10 -5 0
-10 -4 -10 -10z"/>
<path d="M5215 4601 c-3 -5 -1 -12 5 -16 5 -3 10 1 10 9 0 18 -6 21 -15 7z"/>
<path d="M5478 4593 c6 -2 18 -2 25 0 6 3 1 5 -13 5 -14 0 -19 -2 -12 -5z"/>
<path d="M5565 4570 c-3 -5 -1 -10 4 -10 6 0 11 5 11 10 0 6 -2 10 -4 10 -3 0
-8 -4 -11 -10z"/>
<path d="M5720 4570 c0 -5 7 -7 15 -4 8 4 15 8 15 10 0 2 -7 4 -15 4 -8 0 -15
-4 -15 -10z"/>
<path d="M4233 4563 c4 -3 1 -13 -6 -22 -11 -14 -10 -14 5 -2 16 12 16 31 1
31 -4 0 -3 -3 0 -7z"/>
<path d="M5205 4550 c-3 -5 -1 -10 4 -10 6 0 11 5 11 10 0 6 -2 10 -4 10 -3 0
-8 -4 -11 -10z"/>
<path d="M5808 4543 c7 -3 16 -2 19 1 4 3 -2 6 -13 5 -11 0 -14 -3 -6 -6z"/>
<path d="M3380 4535 c0 -5 9 -23 20 -40 26 -39 26 -25 0 17 -11 18 -20 29 -20
23z"/>
<path d="M4315 4530 c-3 -5 -1 -10 4 -10 6 0 11 5 11 10 0 6 -2 10 -4 10 -3 0
-8 -4 -11 -10z"/>
<path d="M5720 4531 c0 -6 5 -13 10 -16 6 -3 10 1 10 9 0 9 -4 16 -10 16 -5 0
-10 -4 -10 -9z"/>
<path d="M5760 4530 c0 -5 5 -10 11 -10 5 0 7 5 4 10 -3 6 -8 10 -11 10 -2 0
-4 -4 -4 -10z"/>
<path d="M5790 4515 c0 -8 2 -15 4 -15 2 0 6 7 10 15 3 8 1 15 -4 15 -6 0 -10
-7 -10 -15z"/>
<path d="M5846 4507 c3 -10 9 -15 12 -12 3 3 0 11 -7 18 -10 9 -11 8 -5 -6z"/>
<path d="M5465 4500 c3 -5 11 -10 16 -10 6 0 7 5 4 10 -3 6 -11 10 -16 10 -6
0 -7 -4 -4 -10z"/>
<path d="M5690 4500 c0 -5 5 -10 10 -10 6 0 10 5 10 10 0 6 -4 10 -10 10 -5 0
-10 -4 -10 -10z"/>
<path d="M4331 4480 c14 -31 19 -36 19 -24 0 6 -7 19 -16 30 -14 18 -14 18 -3
-6z"/>
<path d="M5823 4463 c0 -7 6 -13 12 -13 7 0 17 6 23 13 8 9 5 12 -12 12 -13 0
-23 -6 -23 -12z"/>
<path d="M3435 4430 c9 -16 18 -30 21 -30 2 0 -2 14 -11 30 -9 17 -18 30 -21
30 -2 0 2 -13 11 -30z"/>
<path d="M5915 4450 c3 -5 8 -10 11 -10 2 0 4 5 4 10 0 6 -5 10 -11 10 -5 0
-7 -4 -4 -10z"/>
<path d="M5783 4436 c3 -8 0 -17 -7 -19 -8 -3 -16 -19 -18 -36 -5 -34 -8 -34
42 8 3 2 -3 1 -12 -2 -12 -4 -18 -1 -18 8 0 8 4 15 8 15 14 0 43 -36 35 -43
-3 -4 -1 -7 5 -7 7 0 12 9 12 20 0 10 8 24 18 30 14 9 12 10 -10 5 -20 -4 -28
-1 -28 9 0 8 -7 17 -16 20 -11 4 -15 2 -11 -8z"/>
<path d="M5630 4425 c7 -8 20 -14 29 -14 13 1 13 2 -1 6 -10 2 -18 9 -18 14 0
5 -5 9 -11 9 -8 0 -8 -5 1 -15z"/>
<path d="M4708 4423 c7 -3 16 -2 19 1 4 3 -2 6 -13 5 -11 0 -14 -3 -6 -6z"/>
<path d="M5905 4420 c3 -5 8 -10 11 -10 2 0 4 5 4 10 0 6 -5 10 -11 10 -5 0
-7 -4 -4 -10z"/>
<path d="M4340 4406 c0 -2 7 -7 16 -10 8 -3 12 -2 9 4 -6 10 -25 14 -25 6z"/>
<path d="M4525 4391 c-3 -5 -1 -12 5 -16 5 -3 10 1 10 9 0 18 -6 21 -15 7z"/>
<path d="M5852 4392 c-22 -15 22 -46 46 -33 11 6 22 7 26 3 4 -3 4 1 1 10 -4
9 -16 19 -28 22 -28 7 -30 7 -45 -2z m40 -17 c0 -5 -5 -11 -11 -13 -6 -2 -11
4 -11 13 0 9 5 15 11 13 6 -2 11 -8 11 -13z"/>
<path d="M4475 4380 c3 -5 10 -10 16 -10 5 0 9 5 9 10 0 6 -7 10 -16 10 -8 0
-12 -4 -9 -10z"/>
<path d="M5565 4380 c-3 -5 -3 -10 2 -10 4 0 1 -5 -7 -10 -13 -8 -12 -10 3
-10 9 0 17 6 17 14 0 8 6 17 13 19 7 3 6 6 -5 6 -9 1 -20 -3 -23 -9z"/>
<path d="M6053 4368 c1 -7 9 -18 17 -25 13 -11 13 -12 -4 -13 -10 0 -24 7 -30
14 -17 23 -63 31 -63 12 0 -12 6 -14 20 -10 12 4 17 2 13 -4 -3 -6 3 -13 14
-17 11 -3 20 -11 20 -16 0 -13 -24 -11 -38 3 -6 6 -14 9 -17 6 -3 -3 6 -13 21
-23 18 -12 29 -14 33 -6 5 7 17 8 39 2 20 -6 32 -6 32 0 0 5 -11 9 -25 9 -14
0 -25 5 -25 10 0 6 12 10 27 10 l27 0 -22 16 c-12 8 -22 22 -22 30 0 8 -4 14
-10 14 -5 0 -9 -6 -7 -12z"/>
<path d="M4335 4345 c0 -14 3 -25 8 -25 4 0 7 -5 7 -10 0 -6 -12 -8 -27 -4
-22 4 -25 3 -13 -5 13 -10 13 -12 0 -21 -10 -6 -11 -10 -2 -10 6 0 12 -4 12
-10 0 -5 -7 -10 -15 -10 -8 0 -15 5 -15 10 0 6 -4 10 -10 10 -5 0 -7 -7 -4
-15 4 -8 2 -15 -4 -15 -5 0 -12 -7 -15 -14 -4 -10 -1 -13 9 -9 10 4 14 -2 14
-20 0 -30 -18 -45 -31 -26 -5 8 -9 9 -9 4 0 -6 6 -17 13 -24 10 -11 7 -13 -14
-9 -22 4 -25 2 -21 -19 2 -13 11 -23 18 -23 8 0 14 -4 14 -10 0 -5 -5 -10 -12
-10 -6 0 -8 -3 -5 -6 4 -4 13 -2 20 5 16 12 47 5 47 -11 0 -13 -26 -38 -39
-38 -6 0 -11 5 -11 11 0 6 -5 7 -12 2 -7 -4 -23 -8 -36 -8 -17 -1 -21 3 -16
15 18 43 16 55 -12 57 -14 0 -30 7 -35 15 -9 13 -12 5 -10 -23 1 -9 -6 -20
-16 -23 -15 -6 -15 -9 -3 -16 8 -5 11 -12 7 -16 -3 -4 -13 -1 -22 6 -13 11
-14 10 -8 -5 5 -14 3 -17 -8 -13 -12 5 -14 -1 -11 -23 4 -28 3 -29 -29 -23
-24 4 -29 2 -19 -4 8 -5 40 -13 70 -16 30 -4 69 -9 85 -12 23 -4 26 -3 15 5
-8 6 -25 11 -37 11 -13 0 -23 4 -23 9 0 11 36 21 78 21 19 0 31 -4 27 -10 -4
-6 1 -7 11 -3 15 5 15 7 0 15 -27 15 -18 27 14 18 18 -5 30 -5 30 1 0 5 6 9
14 9 8 0 18 9 21 20 3 11 11 20 17 20 5 0 8 -6 5 -14 -3 -8 0 -17 8 -20 11 -4
14 12 13 80 0 71 -3 86 -18 94 -10 5 -26 7 -34 4 -9 -3 -16 -3 -16 1 0 12 33
34 50 35 28 0 24 120 -3 120 -7 0 -12 -11 -12 -25z m15 -65 c0 -5 -4 -10 -10
-10 -5 0 -10 5 -10 10 0 6 5 10 10 10 6 0 10 -4 10 -10z m-50 -141 c0 -24 -23
-21 -28 4 -2 10 3 17 12 17 10 0 16 -9 16 -21z m60 11 c0 -5 -9 -10 -20 -10
-11 0 -20 5 -20 10 0 6 9 10 20 10 11 0 20 -4 20 -10z m-170 -69 c0 -5 -7 -11
-15 -15 -15 -5 -20 5 -8 17 9 10 23 9 23 -2z m145 -1 c-3 -5 -10 -10 -16 -10
-5 0 -9 5 -9 10 0 6 7 10 16 10 8 0 12 -4 9 -10z m-155 -60 c0 -5 -4 -10 -10
-10 -5 0 -10 5 -10 10 0 6 5 10 10 10 6 0 10 -4 10 -10z m30 0 c0 -5 -4 -10
-10 -10 -5 0 -10 5 -10 10 0 6 5 10 10 10 6 0 10 -4 10 -10z"/>
<path d="M5605 4362 c-9 -6 -11 -20 -5 -47 1 -5 6 3 11 19 9 33 8 38 -6 28z"/>
<path d="M6106 4362 c-3 -5 1 -9 9 -9 8 0 12 4 9 9 -3 4 -7 8 -9 8 -2 0 -6 -4
-9 -8z"/>
<path d="M5833 4337 c0 -9 7 -19 16 -22 13 -5 14 -7 1 -15 -19 -12 2 -35 24
-27 16 6 11 47 -7 47 -5 0 -15 7 -22 16 -10 15 -12 15 -12 1z"/>
<path d="M5905 4331 c-3 -5 -1 -12 5 -16 5 -3 10 1 10 9 0 18 -6 21 -15 7z"/>
<path d="M3766 4315 c-3 -9 -6 -22 -5 -28 0 -7 5 -1 10 12 5 13 8 26 5 28 -2
2 -6 -3 -10 -12z"/>
<path d="M5570 4319 c0 -6 -7 -9 -15 -5 -12 4 -13 2 -6 -13 12 -22 38 -34 46
-21 3 5 1 19 -5 30 -12 22 -20 26 -20 9z"/>
<path d="M5720 4320 c-8 -5 -10 -10 -5 -10 6 0 17 5 25 10 8 5 11 10 5 10 -5
0 -17 -5 -25 -10z"/>
<path d="M5930 4326 c0 -2 9 -6 20 -9 11 -3 18 -1 14 4 -5 9 -34 13 -34 5z"/>
<path d="M6138 4323 c7 -3 16 -2 19 1 4 3 -2 6 -13 5 -11 0 -14 -3 -6 -6z"/>
<path d="M4200 4316 c0 -2 7 -6 15 -10 8 -3 15 -1 15 4 0 6 -7 10 -15 10 -8 0
-15 -2 -15 -4z"/>
<path d="M4420 4310 c-12 -8 -9 -12 18 -22 33 -13 43 -28 18 -28 -8 0 -17 -4
-21 -10 -3 -5 6 -5 24 1 21 7 28 15 24 28 -3 12 -11 17 -23 14 -11 -3 -19 1
-22 11 -2 11 -7 13 -18 6z"/>
<path d="M5466 4307 c3 -10 9 -15 12 -12 3 3 0 11 -7 18 -10 9 -11 8 -5 -6z"/>
<path d="M4167 4293 c-11 -10 -8 -20 7 -26 10 -4 12 0 9 14 -6 21 -7 22 -16
12z"/>
<path d="M5933 4273 c0 -7 3 -11 5 -8 3 3 11 0 18 -6 8 -6 20 -9 29 -6 8 4 17
2 20 -3 4 -6 11 -10 18 -10 6 0 2 6 -8 14 -10 7 -27 11 -38 8 -15 -4 -19 -1
-15 9 4 9 -1 15 -11 15 -10 0 -18 -6 -18 -13z"/>
<path d="M4215 4270 c-3 -5 -3 -10 2 -10 4 0 2 -4 -6 -9 -12 -8 -12 -12 -2
-25 20 -24 26 -20 27 19 0 34 -9 45 -21 25z"/>
<path d="M4390 4270 c-9 -6 -10 -10 -3 -10 6 0 15 5 18 10 8 12 4 12 -15 0z"/>
<path d="M5670 4270 c-13 -9 -13 -10 0 -10 12 -1 11 -4 -4 -15 -11 -8 -17 -18
-13 -21 7 -8 31 15 40 39 7 19 -1 22 -23 7z"/>
<path d="M5776 4267 c3 -10 9 -15 12 -12 3 3 0 11 -7 18 -10 9 -11 8 -5 -6z"/>
<path d="M6050 4260 c36 -11 50 -11 50 0 0 6 -17 10 -37 9 -34 -1 -35 -2 -13
-9z"/>
<path d="M5746 4245 c4 -8 8 -15 10 -15 2 0 4 7 4 15 0 8 -4 15 -10 15 -5 0
-7 -7 -4 -15z"/>
<path d="M5560 4243 c0 -19 21 -27 33 -13 9 10 9 11 -2 5 -8 -4 -17 -2 -22 6
-6 9 -9 10 -9 2z"/>
<path d="M5836 4242 c-3 -5 8 -9 24 -9 16 0 27 4 24 9 -3 4 -14 8 -24 8 -10 0
-21 -4 -24 -8z"/>
<path d="M6131 4234 c6 -8 4 -14 -7 -18 -10 -4 -20 -3 -23 2 -12 18 -47 22
-67 8 -24 -18 -13 -31 15 -16 15 8 27 8 41 0 26 -14 56 -5 62 18 4 12 -1 18
-13 18 -13 0 -15 -4 -8 -12z"/>
<path d="M5620 4230 c0 -5 5 -10 10 -10 6 0 10 5 10 10 0 6 -4 10 -10 10 -5 0
-10 -4 -10 -10z"/>
<path d="M5982 4231 c-11 -6 -9 -9 6 -13 15 -4 19 -2 15 8 -6 16 -4 16 -21 5z"/>
<path d="M4880 4221 c0 -6 5 -13 10 -16 6 -3 10 1 10 9 0 9 -4 16 -10 16 -5 0
-10 -4 -10 -9z"/>
<path d="M5062 4214 c-11 -12 -10 -14 4 -14 11 0 15 -6 11 -20 -3 -11 -1 -20
4 -20 5 0 9 7 9 15 0 8 5 15 10 15 6 0 10 5 10 10 0 6 -6 10 -14 10 -8 0 -16
4 -18 9 -1 5 -9 3 -16 -5z"/>
<path d="M5794 4214 c3 -9 6 -18 6 -20 0 -2 4 -4 9 -4 5 0 7 9 4 20 -3 11 -10
20 -15 20 -6 0 -7 -7 -4 -16z"/>
<path d="M5688 4213 c-22 -5 -23 -19 -4 -26 8 -3 17 1 20 9 3 9 10 12 16 9 5
-3 10 -1 10 4 0 11 -11 12 -42 4z"/>
<path d="M5925 4198 l-20 -21 23 12 c12 6 22 16 22 21 0 13 -2 12 -25 -12z"/>
<path d="M3805 4200 c3 -5 8 -10 11 -10 2 0 4 5 4 10 0 6 -5 10 -11 10 -5 0
-7 -4 -4 -10z"/>
<path d="M4161 4201 c-9 -6 -10 -11 -2 -15 6 -4 11 -2 11 4 0 7 7 7 23 -1 20
-11 21 -11 8 4 -15 19 -20 20 -40 8z"/>
<path d="M4931 4197 c-6 -8 -8 -16 -5 -20 10 -9 34 4 34 19 0 18 -14 18 -29 1z"/>
<path d="M5755 4200 c-3 -5 -1 -10 4 -10 6 0 11 5 11 10 0 6 -2 10 -4 10 -3 0
-8 -4 -11 -10z"/>
<path d="M5600 4191 c-14 -4 -20 -10 -15 -13 6 -3 21 0 35 8 27 14 20 16 -20
5z"/>
<path d="M5968 4193 c7 -3 16 -2 19 1 4 3 -2 6 -13 5 -11 0 -14 -3 -6 -6z"/>
<path d="M3720 4171 c0 -6 4 -13 10 -16 6 -3 7 1 4 9 -7 18 -14 21 -14 7z"/>
<path d="M3880 4171 c0 -5 6 -14 14 -20 12 -10 13 -8 9 8 -5 21 -23 30 -23 12z"/>
<path d="M5230 4170 c0 -5 5 -10 10 -10 6 0 10 5 10 10 0 6 -4 10 -10 10 -5 0
-10 -4 -10 -10z"/>
<path d="M5640 4169 c0 -5 5 -7 10 -4 6 3 10 8 10 11 0 2 -4 4 -10 4 -5 0 -10
-5 -10 -11z"/>
<path d="M5715 4170 c3 -5 8 -10 11 -10 2 0 4 5 4 10 0 6 -5 10 -11 10 -5 0
-7 -4 -4 -10z"/>
<path d="M5924 4168 c-3 -4 5 -5 17 -3 30 6 36 14 9 12 -12 -1 -24 -5 -26 -9z"/>
<path d="M4850 4155 c-14 -8 -20 -14 -14 -15 5 0 19 7 30 15 24 18 16 19 -16
0z"/>
<path d="M4906 4157 c3 -10 9 -15 12 -12 3 3 0 11 -7 18 -10 9 -11 8 -5 -6z"/>
<path d="M4955 4160 c3 -5 8 -10 11 -10 2 0 4 5 4 10 0 6 -5 10 -11 10 -5 0
-7 -4 -4 -10z"/>
<path d="M5096 4154 c-5 -14 -4 -15 9 -4 17 14 19 20 6 20 -5 0 -12 -7 -15
-16z"/>
<path d="M4760 4150 c0 -6 -5 -8 -12 -4 -7 4 2 -17 19 -47 21 -38 37 -54 52
-55 17 -1 19 2 10 12 -13 16 -23 19 -14 4 3 -5 2 -10 -4 -10 -5 0 -13 10 -17
22 -3 12 -13 28 -20 36 -21 21 -17 34 6 22 11 -6 20 -15 20 -20 0 -5 7 -7 15
-4 8 4 15 11 15 16 0 6 -6 8 -14 5 -8 -3 -23 3 -35 14 -12 11 -21 15 -21 9z"/>
<path d="M3847 4139 c7 -7 15 -10 18 -7 3 3 -2 9 -12 12 -14 6 -15 5 -6 -5z"/>
<path d="M4156 4142 c-2 -4 4 -8 14 -8 10 0 16 4 14 8 -3 4 -9 8 -14 8 -5 0
-11 -4 -14 -8z"/>
<path d="M5875 4140 c-3 -6 1 -7 9 -4 18 7 21 14 7 14 -6 0 -13 -4 -16 -10z"/>
<path d="M4885 4130 c3 -5 1 -10 -5 -10 -6 0 -8 -4 -5 -10 12 -19 33 -11 28
10 -3 11 -10 20 -15 20 -5 0 -6 -4 -3 -10z"/>
<path d="M4938 4133 c7 -3 16 -2 19 1 4 3 -2 6 -13 5 -11 0 -14 -3 -6 -6z"/>
<path d="M5550 4129 c0 -12 38 -31 44 -21 2 4 -7 12 -20 19 -13 6 -24 7 -24 2z"/>
<path d="M5928 4133 c7 -3 16 -2 19 1 4 3 -2 6 -13 5 -11 0 -14 -3 -6 -6z"/>
<path d="M5175 4120 c3 -5 1 -10 -4 -10 -6 0 -11 -5 -11 -11 0 -8 4 -9 13 0 8
6 17 8 21 4 4 -4 4 0 0 10 -3 9 -10 17 -16 17 -5 0 -6 -4 -3 -10z"/>
<path d="M3925 4109 c-4 -6 -5 -12 -2 -15 2 -3 7 2 10 11 7 17 1 20 -8 4z"/>
<path d="M5747 4114 c-8 -8 14 -54 26 -54 5 0 7 -7 3 -15 -8 -22 12 -18 24 5
8 15 8 18 -3 14 -18 -7 -31 37 -14 48 8 5 5 8 -9 8 -11 0 -23 -3 -27 -6z"/>
<path d="M5818 4113 c-21 -5 -24 -23 -4 -23 8 0 16 7 20 15 3 8 4 14 3 14 -1
-1 -10 -3 -19 -6z"/>
<path d="M4706 4095 c-3 -9 0 -15 10 -15 8 0 12 -4 9 -10 -3 -5 -1 -10 4 -10
6 0 11 5 11 11 0 5 5 7 11 3 8 -4 8 0 0 15 -14 24 -36 28 -45 6z"/>
<path d="M4960 4100 c0 -5 5 -10 11 -10 5 0 7 5 4 10 -3 6 -8 10 -11 10 -2 0
-4 -4 -4 -10z"/>
<path d="M5698 4103 c7 -3 16 -2 19 1 4 3 -2 6 -13 5 -11 0 -14 -3 -6 -6z"/>
<path d="M5010 4090 c0 -5 5 -10 11 -10 5 0 7 5 4 10 -3 6 -8 10 -11 10 -2 0
-4 -4 -4 -10z"/>
<path d="M5423 4084 c-17 -17 -16 -21 3 -28 9 -4 13 -2 8 5 -4 6 -1 15 6 19 7
4 8 10 4 13 -5 3 -15 -1 -21 -9z"/>
<path d="M5601 4100 c-17 -38 4 -61 36 -40 16 10 16 11 -4 7 -16 -4 -23 1 -26
17 -2 11 -5 19 -6 16z"/>
<path d="M5060 4080 c0 -5 -10 -11 -22 -11 -19 -1 -20 -2 -5 -6 14 -3 17 -11
13 -26 -5 -22 -5 -22 9 -2 8 11 19 25 24 31 10 12 5 24 -11 24 -4 0 -8 -4 -8
-10z"/>
<path d="M5179 4075 c-1 -5 -1 -14 0 -19 1 -5 -4 -13 -11 -17 -8 -6 -1 -9 21
-9 25 0 32 -4 27 -15 -3 -8 -1 -15 4 -15 6 0 10 9 10 20 0 11 -7 20 -15 20 -9
0 -20 10 -25 23 -5 12 -10 18 -11 12z"/>
<path d="M4976 4061 c-4 -5 3 -7 14 -4 23 6 26 13 6 13 -8 0 -17 -4 -20 -9z"/>
<path d="M5145 4060 c-4 -6 -8 -21 -11 -34 -4 -22 -1 -25 26 -24 17 1 33 6 37
11 3 6 1 7 -5 4 -20 -13 -44 5 -39 29 5 26 2 30 -8 14z"/>
<path d="M4903 4042 c-9 -6 -6 -11 7 -20 21 -13 26 -6 12 15 -4 7 -13 9 -19 5z"/>
<path d="M4035 4030 c6 -10 4 -12 -8 -7 -10 3 -17 2 -17 -3 0 -6 9 -10 20 -10
22 0 27 15 8 26 -7 5 -8 3 -3 -6z"/>
<path d="M4760 4025 c-11 -13 -11 -18 0 -28 10 -9 11 -9 6 1 -4 7 -2 19 4 27
7 8 10 15 7 15 -2 0 -10 -7 -17 -15z"/>
<path d="M5847 4026 c-4 -10 0 -12 14 -9 10 3 16 9 13 14 -8 13 -21 11 -27 -5z"/>
<path d="M3986 4013 c-4 -9 -3 -20 1 -24 4 -4 9 3 9 17 2 28 -1 31 -10 7z"/>
<path d="M4830 4010 c14 -11 31 -20 39 -20 11 0 11 -3 0 -16 -8 -10 -15 -12
-17 -5 -2 6 -8 11 -13 11 -5 0 -4 -9 3 -20 15 -24 28 -26 28 -5 0 8 9 15 19
15 11 0 23 5 27 12 4 7 3 8 -4 4 -7 -4 -12 -4 -12 1 0 11 -58 43 -78 43 -13 0
-11 -5 8 -20z"/>
<path d="M5925 4021 c-3 -5 -1 -12 5 -16 5 -3 10 1 10 9 0 18 -6 21 -15 7z"/>
<path d="M3955 4000 c-3 -5 -1 -10 4 -10 6 0 11 5 11 10 0 6 -2 10 -4 10 -3 0
-8 -4 -11 -10z"/>
<path d="M5025 4000 c3 -5 3 -16 -2 -22 -15 -26 -14 -48 4 -41 10 4 14 2 9 -5
-3 -6 -2 -13 4 -17 8 -5 9 30 1 88 -1 4 -6 7 -12 7 -5 0 -7 -4 -4 -10z"/>
<path d="M5796 4001 c-4 -6 -12 -8 -18 -5 -6 4 -5 -3 2 -15 10 -19 14 -20 27
-9 9 7 18 12 20 11 1 -2 11 -3 20 -3 14 0 15 2 4 13 -11 10 -14 9 -18 -1 -4
-10 -8 -9 -17 4 -9 12 -15 14 -20 5z"/>
<path d="M4796 3981 c-3 -5 1 -11 9 -14 9 -4 12 -1 8 9 -6 16 -10 17 -17 5z"/>
<path d="M4943 3965 c0 -8 4 -15 9 -15 4 0 8 7 8 15 0 8 -4 15 -8 15 -5 0 -9
-7 -9 -15z"/>
<path d="M5087 3944 c-15 -15 -24 -31 -21 -36 3 -5 0 -16 -7 -24 -11 -13 -14
-13 -19 -2 -4 10 -10 8 -28 -8 l-22 -21 27 4 c27 4 27 4 8 -12 -19 -16 -19
-16 9 -9 21 5 27 4 22 -5 -9 -15 7 -14 22 1 9 9 12 9 12 -1 0 -7 4 -9 10 -6
14 8 -11 34 -27 28 -7 -3 -13 2 -13 11 0 9 7 19 15 22 8 4 15 15 15 26 0 12 5
18 13 15 7 -3 12 4 12 19 0 13 -1 24 -1 24 -1 0 -13 -12 -27 -26z"/>
<path d="M4228 3943 c6 -2 18 -2 25 0 6 3 1 5 -13 5 -14 0 -19 -2 -12 -5z"/>
<path d="M4780 3930 c0 -5 7 -7 15 -4 8 4 15 8 15 10 0 2 -7 4 -15 4 -8 0 -15
-4 -15 -10z"/>
<path d="M4740 3921 c0 -6 4 -13 10 -16 6 -3 7 1 4 9 -7 18 -14 21 -14 7z"/>
<path d="M4868 3921 c8 -4 13 -12 12 -17 -1 -5 4 -10 10 -12 9 -3 9 1 1 17 -7
11 -17 21 -24 21 -8 0 -8 -3 1 -9z"/>
<path d="M4840 3905 c0 -5 5 -17 10 -25 5 -8 10 -10 10 -5 0 6 -5 17 -10 25
-5 8 -10 11 -10 5z"/>
<path d="M4555 3880 c21 -24 26 -25 19 -6 -3 8 -13 17 -22 21 -13 5 -13 2 3
-15z"/>
<path d="M4650 3889 c0 -5 5 -7 10 -4 6 3 10 8 10 11 0 2 -4 4 -10 4 -5 0 -10
-5 -10 -11z"/>
<path d="M4956 3883 c-6 -14 -5 -15 5 -6 7 7 10 15 7 18 -3 3 -9 -2 -12 -12z"/>
<path d="M5810 3896 c0 -2 7 -7 16 -10 8 -3 12 -2 9 4 -6 10 -25 14 -25 6z"/>
<path d="M4896 3867 c3 -10 9 -15 12 -12 3 3 0 11 -7 18 -10 9 -11 8 -5 -6z"/>
<path d="M4621 3867 c2 -1 12 -9 22 -16 15 -12 17 -12 11 3 -3 9 -13 16 -22
16 -8 0 -13 -1 -11 -3z"/>
<path d="M5525 3861 c-3 -5 -1 -12 5 -16 5 -3 10 1 10 9 0 18 -6 21 -15 7z"/>
<path d="M4614 3833 c2 -9 10 -17 19 -19 18 -2 12 22 -8 30 -8 3 -12 -2 -11
-11z"/>
<path d="M4955 3840 c-3 -5 -2 -10 4 -10 5 0 13 5 16 10 3 6 2 10 -4 10 -5 0
-13 -4 -16 -10z"/>
<path d="M5565 3820 c-3 -5 -1 -10 4 -10 6 0 11 5 11 10 0 6 -2 10 -4 10 -3 0
-8 -4 -11 -10z"/>
<path d="M5770 3820 c0 -5 4 -10 9 -10 5 0 16 -3 25 -6 11 -4 16 -1 16 10 0
10 -9 16 -25 16 -14 0 -25 -4 -25 -10z"/>
<path d="M4927 3809 c7 -7 15 -10 18 -7 3 3 -2 9 -12 12 -14 6 -15 5 -6 -5z"/>
<path d="M5030 3800 c8 -5 22 -9 30 -9 10 0 8 3 -5 9 -27 12 -43 12 -25 0z"/>
<path d="M4945 3780 c-3 -5 -1 -10 5 -10 6 0 8 -4 5 -10 -3 -5 -1 -10 5 -10 6
0 8 -4 5 -10 -3 -5 -1 -10 5 -10 7 0 9 7 6 16 -3 9 -6 22 -6 30 0 16 -16 19
-25 4z"/>
<path d="M5520 3760 c0 -5 4 -10 9 -10 6 0 13 5 16 10 3 6 -1 10 -9 10 -9 0
-16 -4 -16 -10z"/>
<path d="M4738 3748 c5 -5 16 -8 23 -6 8 3 3 7 -10 11 -17 4 -21 3 -13 -5z"/>
<path d="M4923 3745 c0 -8 4 -15 9 -15 4 0 8 4 8 9 0 6 -4 12 -8 15 -5 3 -9
-1 -9 -9z"/>
<path d="M5029 3751 c7 -5 10 -14 7 -20 -4 -6 0 -11 9 -11 13 0 14 4 5 20 -6
11 -16 20 -23 20 -8 0 -8 -3 2 -9z"/>
<path d="M4838 3733 c7 -3 16 -2 19 1 4 3 -2 6 -13 5 -11 0 -14 -3 -6 -6z"/>
<path d="M5000 3730 c0 -5 5 -10 11 -10 5 0 7 5 4 10 -3 6 -8 10 -11 10 -2 0
-4 -4 -4 -10z"/>
<path d="M5090 3730 c0 -13 18 -22 24 -11 3 5 -1 11 -9 15 -8 3 -15 1 -15 -4z"/>
<path d="M5138 3713 c7 -3 16 -2 19 1 4 3 -2 6 -13 5 -11 0 -14 -3 -6 -6z"/>
<path d="M4905 3340 c3 -5 8 -10 11 -10 2 0 4 5 4 10 0 6 -5 10 -11 10 -5 0
-7 -4 -4 -10z"/>
<path d="M4510 2891 c0 -9 30 -24 36 -18 2 1 -6 8 -16 15 -11 7 -20 8 -20 3z"/>
<path d="M4020 2841 c0 -5 5 -13 10 -16 6 -3 10 -2 10 4 0 5 -4 13 -10 16 -5
3 -10 2 -10 -4z"/>
<path d="M4275 2780 c3 -5 8 -10 11 -10 2 0 4 5 4 10 0 6 -5 10 -11 10 -5 0
-7 -4 -4 -10z"/>
<path d="M4155 2753 c-18 -14 -18 -15 -2 -9 10 3 23 6 28 6 5 0 9 5 9 10 0 14
-12 12 -35 -7z"/>
<path d="M4447 2764 c-4 -4 -7 -11 -7 -15 0 -9 27 -5 37 6 4 4 3 5 -4 2 -6 -4
-13 -2 -15 4 -2 5 -7 7 -11 3z"/>
<path d="M4724 2754 c3 -9 6 -18 6 -20 0 -3 5 -2 10 1 16 10 12 35 -6 35 -11
0 -14 -5 -10 -16z"/>
<path d="M4255 2730 c-3 -5 -1 -10 4 -10 6 0 11 5 11 10 0 6 -2 10 -4 10 -3 0
-8 -4 -11 -10z"/>
<path d="M4424 2717 c9 -28 -3 -40 -22 -25 -15 12 -16 11 -3 -4 7 -10 17 -18
21 -18 14 0 20 31 9 48 -9 15 -10 15 -5 -1z"/>
<path d="M4046 2705 c7 -18 44 -21 44 -3 0 6 -3 8 -6 5 -4 -3 -15 -2 -25 4
-15 7 -17 6 -13 -6z"/>
<path d="M4340 2695 c-10 -12 -16 -13 -27 -4 -11 10 -12 9 -7 -5 5 -14 0 -16
-39 -11 -59 7 -67 -8 -15 -28 31 -12 45 -14 55 -6 8 7 13 7 13 2 0 -6 11 -8
25 -5 18 3 27 -1 32 -14 4 -10 2 -19 -5 -22 -7 -2 -10 -8 -6 -13 6 -11 -29
-12 -40 -1 -4 4 -26 7 -48 8 l-39 0 33 -17 c25 -13 36 -15 47 -6 12 10 13 9 7
-8 -4 -11 -4 -16 0 -12 4 4 12 3 18 -2 8 -7 21 9 43 50 33 60 32 63 -19 59
-20 -1 -28 3 -28 14 0 9 7 16 15 16 8 0 15 5 15 10 0 15 -16 12 -30 -5z"/>
<path d="M4150 2680 c-9 -6 -10 -10 -3 -10 6 0 15 5 18 10 8 12 4 12 -15 0z"/>
<path d="M4175 2660 c-3 -5 6 -27 20 -47 24 -36 25 -37 25 -11 0 14 -7 29 -16
32 -9 4 -14 13 -10 21 6 17 -9 21 -19 5z"/>
<path d="M4450 2659 c0 -5 5 -7 10 -4 6 3 10 8 10 11 0 2 -4 4 -10 4 -5 0 -10
-5 -10 -11z"/>
<path d="M4396 2563 c-6 -14 -5 -15 5 -6 7 7 10 15 7 18 -3 3 -9 -2 -12 -12z"/>
<path d="M4380 2525 c-10 -12 -8 -16 15 -25 35 -13 40 -13 25 5 -7 8 -17 12
-23 8 -6 -4 -8 0 -4 10 8 21 3 22 -13 2z"/>
<path d="M4670 2531 c0 -6 4 -13 10 -16 6 -3 7 1 4 9 -7 18 -14 21 -14 7z"/>
<path d="M4665 2440 c3 -11 3 -20 -2 -20 -5 0 -9 -10 -10 -22 -2 -22 -1 -22
12 2 17 30 19 60 4 60 -6 0 -8 -9 -4 -20z"/>
<path d="M4204 2393 c3 -4 2 -11 -3 -17 -6 -8 4 -11 35 -13 24 -1 44 3 44 8 0
15 28 10 38 -7 8 -14 10 -14 21 0 11 13 11 17 0 20 -22 8 -141 15 -135 9z"/>
<path d="M6090 4080 c0 -5 5 -10 10 -10 6 0 10 5 10 10 0 6 -4 10 -10 10 -5 0
-10 -4 -10 -10z"/>
<path d="M5361 3963 c-1 -18 13 -23 29 -11 12 8 12 9 -2 5 -9 -3 -19 -1 -22 6
-3 9 -5 9 -5 0z"/>
<path d="M5380 3770 c0 -5 5 -10 10 -10 6 0 10 5 10 10 0 6 -4 10 -10 10 -5 0
-10 -4 -10 -10z"/>
</g>
</svg>
